<svg version="1.1" xmlns="http://www.w3.org/2000/svg" viewBox="0 0 820 840" width="2460" height="2520">
  <!-- svg-source:excalidraw -->
  
  <defs>
    <style>
      @font-face {
        font-family: "Virgil";
        src: url("/dist/excalidraw-assets/Virgil.woff2");
      }
      @font-face {
        font-family: "Cascadia";
        src: url("/dist/excalidraw-assets/Cascadia.woff2");
      }
      @font-face {
        font-family: "GoogleSans_Regular";
        src: url("/dist/excalidraw-assets/GoogleSans_Regular.ttf");
      }
      @font-face {
        font-family: "GoogleSans_Medium";
        src: url("/dist/excalidraw-assets/GoogleSans_Medium.ttf");
      }
    </style>
  </defs>
  <g stroke-linecap="round" transform="translate(10 10) rotate(0 400 410)"><path d="M0 0 L800 0 L800 820 L0 820" stroke="none" stroke-width="0" fill="#FFF"></path><path d="M0 0 C232.8 0, 465.6 0, 800 0 M0 0 C312.24 0, 624.47 0, 800 0 M800 0 C800 224.04, 800 448.09, 800 820 M800 0 C800 278.94, 800 557.88, 800 820 M800 820 C616.15 820, 432.3 820, 0 820 M800 820 C634.38 820, 468.76 820, 0 820 M0 820 C0 564.13, 0 308.26, 0 0 M0 820 C0 587.95, 0 355.89, 0 0" stroke="#d5d7dc" stroke-width="2" fill="none"></path></g><g stroke-linecap="round" transform="translate(30 210) rotate(0 380 300)"><path d="M0 0 L760 0 L760 600 L0 600" stroke="none" stroke-width="0" fill="#f1f3f4"></path><path d="M0 0 C189.1 0, 378.21 0, 760 0 M0 0 C246.35 0, 492.69 0, 760 0 M760 0 C760 145.23, 760 290.46, 760 600 M760 0 C760 121.11, 760 242.21, 760 600 M760 600 C584.62 600, 409.23 600, 0 600 M760 600 C465.15 600, 170.3 600, 0 600 M0 600 C0 366.93, 0 133.86, 0 0 M0 600 C0 440.17, 0 280.34, 0 0" stroke="#FFFFFF" stroke-width="2" fill="none"></path></g><g stroke-opacity="0.8" fill-opacity="0.8" transform="translate(50 230) rotate(0 95.5 11.5)"><text x="0" y="19" font-family="Helvetica, Segoe UI Emoji" font-size="20px" fill="#202124" text-anchor="start" style="white-space: pre;" direction="ltr">Google Cloud Project</text></g><g stroke-linecap="round" transform="translate(50 270) rotate(0 360 260)"><path d="M0 0 L720 0 L720 520 L0 520" stroke="none" stroke-width="0" fill="#d2e3fc"></path><path d="M0 0 C230.84 0, 461.69 0, 720 0 M0 0 C194.48 0, 388.96 0, 720 0 M720 0 C720 176.54, 720 353.08, 720 520 M720 0 C720 113.58, 720 227.16, 720 520 M720 520 C493.53 520, 267.07 520, 0 520 M720 520 C563.15 520, 406.29 520, 0 520 M0 520 C0 331.93, 0 143.85, 0 0 M0 520 C0 325.58, 0 131.17, 0 0" stroke="#4285f4" stroke-width="2" fill="none"></path></g><g stroke-opacity="0.8" fill-opacity="0.8" transform="translate(70 290) rotate(0 88 9.5)"><text x="0" y="15" font-family="Helvetica, Segoe UI Emoji" font-size="16px" fill="#202124" text-anchor="start" style="white-space: pre;" direction="ltr">LARGE DATA SHARING</text></g><g stroke-linecap="round" transform="translate(30 30) rotate(0 370 80)"><path d="M0 0 L740 0 L740 160 L0 160" stroke="none" stroke-width="0" fill="#d2e3fc"></path><path d="M0 0 C250.51 0, 501.01 0, 740 0 M0 0 C286.73 0, 573.46 0, 740 0 M740 0 C740 37.72, 740 75.44, 740 160 M740 0 C740 57.21, 740 114.42, 740 160 M740 160 C451.58 160, 163.15 160, 0 160 M740 160 C463.46 160, 186.92 160, 0 160 M0 160 C0 112.07, 0 64.13, 0 0 M0 160 C0 100.42, 0 40.85, 0 0" stroke="#4285f4" stroke-width="2" fill="none"></path></g><g stroke-opacity="0.8" fill-opacity="0.8" transform="translate(50 50) rotate(0 23.5 9.5)"><text x="0" y="15" font-family="Helvetica, Segoe UI Emoji" font-size="16.444444444444446px" fill="#202124" text-anchor="start" style="white-space: pre;" direction="ltr">USER</text></g><g stroke-linecap="round" transform="translate(370 230) rotate(0 16 16)"><path d="M32 16 C32 16.93, 31.92 17.87, 31.76 18.78 C31.6 19.69, 31.35 20.6, 31.04 21.47 C30.72 22.34, 30.32 23.2, 29.86 24 C29.39 24.8, 28.85 25.58, 28.26 26.28 C27.66 26.99, 26.99 27.66, 26.28 28.26 C25.58 28.85, 24.8 29.39, 24 29.86 C23.2 30.32, 22.34 30.72, 21.47 31.04 C20.6 31.35, 19.69 31.6, 18.78 31.76 C17.87 31.92, 16.93 32, 16 32 C15.07 32, 14.13 31.92, 13.22 31.76 C12.31 31.6, 11.4 31.35, 10.53 31.04 C9.66 30.72, 8.8 30.32, 8 29.86 C7.2 29.39, 6.42 28.85, 5.72 28.26 C5.01 27.66, 4.34 26.99, 3.74 26.28 C3.15 25.58, 2.61 24.8, 2.14 24 C1.68 23.2, 1.28 22.34, 0.96 21.47 C0.65 20.6, 0.4 19.69, 0.24 18.78 C0.08 17.87, 0 16.93, 0 16 C0 15.07, 0.08 14.13, 0.24 13.22 C0.4 12.31, 0.65 11.4, 0.96 10.53 C1.28 9.66, 1.68 8.8, 2.14 8 C2.61 7.2, 3.15 6.42, 3.74 5.72 C4.34 5.01, 5.01 4.34, 5.72 3.74 C6.42 3.15, 7.2 2.61, 8 2.14 C8.8 1.68, 9.66 1.28, 10.53 0.96 C11.4 0.65, 12.31 0.4, 13.22 0.24 C14.13 0.08, 15.07 0, 16 0 C16.93 0, 17.87 0.08, 18.78 0.24 C19.69 0.4, 20.6 0.65, 21.47 0.96 C22.34 1.28, 23.2 1.68, 24 2.14 C24.8 2.61, 25.58 3.15, 26.28 3.74 C26.99 4.34, 27.66 5.01, 28.26 5.72 C28.85 6.42, 29.39 7.2, 29.86 8 C30.32 8.8, 30.72 9.66, 31.04 10.53 C31.35 11.4, 31.6 12.31, 31.76 13.22 C31.92 14.13, 31.96 15.54, 32 16 C32.04 16.46, 32.04 15.54, 32 16" stroke="none" stroke-width="0" fill="#202124"></path><path d="M32 16 C32 16.93, 31.92 17.87, 31.76 18.78 C31.6 19.69, 31.35 20.6, 31.04 21.47 C30.72 22.34, 30.32 23.2, 29.86 24 C29.39 24.8, 28.85 25.58, 28.26 26.28 C27.66 26.99, 26.99 27.66, 26.28 28.26 C25.58 28.85, 24.8 29.39, 24 29.86 C23.2 30.32, 22.34 30.72, 21.47 31.04 C20.6 31.35, 19.69 31.6, 18.78 31.76 C17.87 31.92, 16.93 32, 16 32 C15.07 32, 14.13 31.92, 13.22 31.76 C12.31 31.6, 11.4 31.35, 10.53 31.04 C9.66 30.72, 8.8 30.32, 8 29.86 C7.2 29.39, 6.42 28.85, 5.72 28.26 C5.01 27.66, 4.34 26.99, 3.74 26.28 C3.15 25.58, 2.61 24.8, 2.14 24 C1.68 23.2, 1.28 22.34, 0.96 21.47 C0.65 20.6, 0.4 19.69, 0.24 18.78 C0.08 17.87, 0 16.93, 0 16 C0 15.07, 0.08 14.13, 0.24 13.22 C0.4 12.31, 0.65 11.4, 0.96 10.53 C1.28 9.66, 1.68 8.8, 2.14 8 C2.61 7.2, 3.15 6.42, 3.74 5.72 C4.34 5.01, 5.01 4.34, 5.72 3.74 C6.42 3.15, 7.2 2.61, 8 2.14 C8.8 1.68, 9.66 1.28, 10.53 0.96 C11.4 0.65, 12.31 0.4, 13.22 0.24 C14.13 0.08, 15.07 0, 16 0 C16.93 0, 17.87 0.08, 18.78 0.24 C19.69 0.4, 20.6 0.65, 21.47 0.96 C22.34 1.28, 23.2 1.68, 24 2.14 C24.8 2.61, 25.58 3.15, 26.28 3.74 C26.99 4.34, 27.66 5.01, 28.26 5.72 C28.85 6.42, 29.39 7.2, 29.86 8 C30.32 8.8, 30.72 9.66, 31.04 10.53 C31.35 11.4, 31.6 12.31, 31.76 13.22 C31.92 14.13, 31.96 15.54, 32 16 C32.04 16.46, 32.04 15.54, 32 16" stroke="#202124" stroke-width="2" fill="none"></path></g><g transform="translate(380.5 238) rotate(0 4.5 8)"><text x="4.5" y="13" font-family="Helvetica, Segoe UI Emoji" font-size="14px" fill="#FFFFFF" text-anchor="middle" style="white-space: pre;" direction="ltr">1</text></g><g stroke-linecap="round" transform="translate(250 390) rotate(0 16 16)"><path d="M32 16 C32 16.93, 31.92 17.87, 31.76 18.78 C31.6 19.69, 31.35 20.6, 31.04 21.47 C30.72 22.34, 30.32 23.2, 29.86 24 C29.39 24.8, 28.85 25.58, 28.26 26.28 C27.66 26.99, 26.99 27.66, 26.28 28.26 C25.58 28.85, 24.8 29.39, 24 29.86 C23.2 30.32, 22.34 30.72, 21.47 31.04 C20.6 31.35, 19.69 31.6, 18.78 31.76 C17.87 31.92, 16.93 32, 16 32 C15.07 32, 14.13 31.92, 13.22 31.76 C12.31 31.6, 11.4 31.35, 10.53 31.04 C9.66 30.72, 8.8 30.32, 8 29.86 C7.2 29.39, 6.42 28.85, 5.72 28.26 C5.01 27.66, 4.34 26.99, 3.74 26.28 C3.15 25.58, 2.61 24.8, 2.14 24 C1.68 23.2, 1.28 22.34, 0.96 21.47 C0.65 20.6, 0.4 19.69, 0.24 18.78 C0.08 17.87, 0 16.93, 0 16 C0 15.07, 0.08 14.13, 0.24 13.22 C0.4 12.31, 0.65 11.4, 0.96 10.53 C1.28 9.66, 1.68 8.8, 2.14 8 C2.61 7.2, 3.15 6.42, 3.74 5.72 C4.34 5.01, 5.01 4.34, 5.72 3.74 C6.42 3.15, 7.2 2.61, 8 2.14 C8.8 1.68, 9.66 1.28, 10.53 0.96 C11.4 0.65, 12.31 0.4, 13.22 0.24 C14.13 0.08, 15.07 0, 16 0 C16.93 0, 17.87 0.08, 18.78 0.24 C19.69 0.4, 20.6 0.65, 21.47 0.96 C22.34 1.28, 23.2 1.68, 24 2.14 C24.8 2.61, 25.58 3.15, 26.28 3.74 C26.99 4.34, 27.66 5.01, 28.26 5.72 C28.85 6.42, 29.39 7.2, 29.86 8 C30.32 8.8, 30.72 9.66, 31.04 10.53 C31.35 11.4, 31.6 12.31, 31.76 13.22 C31.92 14.13, 31.96 15.54, 32 16 C32.04 16.46, 32.04 15.54, 32 16" stroke="none" stroke-width="0" fill="#202124"></path><path d="M32 16 C32 16.93, 31.92 17.87, 31.76 18.78 C31.6 19.69, 31.35 20.6, 31.04 21.47 C30.72 22.34, 30.32 23.2, 29.86 24 C29.39 24.8, 28.85 25.58, 28.26 26.28 C27.66 26.99, 26.99 27.66, 26.28 28.26 C25.58 28.85, 24.8 29.39, 24 29.86 C23.2 30.32, 22.34 30.72, 21.47 31.04 C20.6 31.35, 19.69 31.6, 18.78 31.76 C17.87 31.92, 16.93 32, 16 32 C15.07 32, 14.13 31.92, 13.22 31.76 C12.31 31.6, 11.4 31.35, 10.53 31.04 C9.66 30.72, 8.8 30.32, 8 29.86 C7.2 29.39, 6.42 28.85, 5.72 28.26 C5.01 27.66, 4.34 26.99, 3.74 26.28 C3.15 25.58, 2.61 24.8, 2.14 24 C1.68 23.2, 1.28 22.34, 0.96 21.47 C0.65 20.6, 0.4 19.69, 0.24 18.78 C0.08 17.87, 0 16.93, 0 16 C0 15.07, 0.08 14.13, 0.24 13.22 C0.4 12.31, 0.65 11.4, 0.96 10.53 C1.28 9.66, 1.68 8.8, 2.14 8 C2.61 7.2, 3.15 6.42, 3.74 5.72 C4.34 5.01, 5.01 4.34, 5.72 3.74 C6.42 3.15, 7.2 2.61, 8 2.14 C8.8 1.68, 9.66 1.28, 10.53 0.96 C11.4 0.65, 12.31 0.4, 13.22 0.24 C14.13 0.08, 15.07 0, 16 0 C16.93 0, 17.87 0.08, 18.78 0.24 C19.69 0.4, 20.6 0.65, 21.47 0.96 C22.34 1.28, 23.2 1.68, 24 2.14 C24.8 2.61, 25.58 3.15, 26.28 3.74 C26.99 4.34, 27.66 5.01, 28.26 5.72 C28.85 6.42, 29.39 7.2, 29.86 8 C30.32 8.8, 30.72 9.66, 31.04 10.53 C31.35 11.4, 31.6 12.31, 31.76 13.22 C31.92 14.13, 31.96 15.54, 32 16 C32.04 16.46, 32.04 15.54, 32 16" stroke="#202124" stroke-width="2" fill="none"></path></g><g transform="translate(260.5 398) rotate(0 4.5 8)"><text x="4.5" y="13" font-family="Helvetica, Segoe UI Emoji" font-size="14px" fill="#FFFFFF" text-anchor="middle" style="white-space: pre;" direction="ltr">2</text></g><g stroke-linecap="round" transform="translate(250 650) rotate(0 16 16)"><path d="M32 16 C32 16.93, 31.92 17.87, 31.76 18.78 C31.6 19.69, 31.35 20.6, 31.04 21.47 C30.72 22.34, 30.32 23.2, 29.86 24 C29.39 24.8, 28.85 25.58, 28.26 26.28 C27.66 26.99, 26.99 27.66, 26.28 28.26 C25.58 28.85, 24.8 29.39, 24 29.86 C23.2 30.32, 22.34 30.72, 21.47 31.04 C20.6 31.35, 19.69 31.6, 18.78 31.76 C17.87 31.92, 16.93 32, 16 32 C15.07 32, 14.13 31.92, 13.22 31.76 C12.31 31.6, 11.4 31.35, 10.53 31.04 C9.66 30.72, 8.8 30.32, 8 29.86 C7.2 29.39, 6.42 28.85, 5.72 28.26 C5.01 27.66, 4.34 26.99, 3.74 26.28 C3.15 25.58, 2.61 24.8, 2.14 24 C1.68 23.2, 1.28 22.34, 0.96 21.47 C0.65 20.6, 0.4 19.69, 0.24 18.78 C0.08 17.87, 0 16.93, 0 16 C0 15.07, 0.08 14.13, 0.24 13.22 C0.4 12.31, 0.65 11.4, 0.96 10.53 C1.28 9.66, 1.68 8.8, 2.14 8 C2.61 7.2, 3.15 6.42, 3.74 5.72 C4.34 5.01, 5.01 4.34, 5.72 3.74 C6.42 3.15, 7.2 2.61, 8 2.14 C8.8 1.68, 9.66 1.28, 10.53 0.96 C11.4 0.65, 12.31 0.4, 13.22 0.24 C14.13 0.08, 15.07 0, 16 0 C16.93 0, 17.87 0.08, 18.78 0.24 C19.69 0.4, 20.6 0.65, 21.47 0.96 C22.34 1.28, 23.2 1.68, 24 2.14 C24.8 2.61, 25.58 3.15, 26.28 3.74 C26.99 4.34, 27.66 5.01, 28.26 5.72 C28.85 6.42, 29.39 7.2, 29.86 8 C30.32 8.8, 30.72 9.66, 31.04 10.53 C31.35 11.4, 31.6 12.31, 31.76 13.22 C31.92 14.13, 31.96 15.54, 32 16 C32.04 16.46, 32.04 15.54, 32 16" stroke="none" stroke-width="0" fill="#202124"></path><path d="M32 16 C32 16.93, 31.92 17.87, 31.76 18.78 C31.6 19.69, 31.35 20.6, 31.04 21.47 C30.72 22.34, 30.32 23.2, 29.86 24 C29.39 24.8, 28.85 25.58, 28.26 26.28 C27.66 26.99, 26.99 27.66, 26.28 28.26 C25.58 28.85, 24.8 29.39, 24 29.86 C23.2 30.32, 22.34 30.72, 21.47 31.04 C20.6 31.35, 19.69 31.6, 18.78 31.76 C17.87 31.92, 16.93 32, 16 32 C15.07 32, 14.13 31.92, 13.22 31.76 C12.31 31.6, 11.4 31.35, 10.53 31.04 C9.66 30.72, 8.8 30.32, 8 29.86 C7.2 29.39, 6.42 28.85, 5.72 28.26 C5.01 27.66, 4.34 26.99, 3.74 26.28 C3.15 25.58, 2.61 24.8, 2.14 24 C1.68 23.2, 1.28 22.34, 0.96 21.47 C0.65 20.6, 0.4 19.69, 0.24 18.78 C0.08 17.87, 0 16.93, 0 16 C0 15.07, 0.08 14.13, 0.24 13.22 C0.4 12.31, 0.65 11.4, 0.96 10.53 C1.28 9.66, 1.68 8.8, 2.14 8 C2.61 7.2, 3.15 6.42, 3.74 5.72 C4.34 5.01, 5.01 4.34, 5.72 3.74 C6.42 3.15, 7.2 2.61, 8 2.14 C8.8 1.68, 9.66 1.28, 10.53 0.96 C11.4 0.65, 12.31 0.4, 13.22 0.24 C14.13 0.08, 15.07 0, 16 0 C16.93 0, 17.87 0.08, 18.78 0.24 C19.69 0.4, 20.6 0.65, 21.47 0.96 C22.34 1.28, 23.2 1.68, 24 2.14 C24.8 2.61, 25.58 3.15, 26.28 3.74 C26.99 4.34, 27.66 5.01, 28.26 5.72 C28.85 6.42, 29.39 7.2, 29.86 8 C30.32 8.8, 30.72 9.66, 31.04 10.53 C31.35 11.4, 31.6 12.31, 31.76 13.22 C31.92 14.13, 31.96 15.54, 32 16 C32.04 16.46, 32.04 15.54, 32 16" stroke="#202124" stroke-width="2" fill="none"></path></g><g transform="translate(260.5 658) rotate(0 4.5 8)"><text x="4.5" y="13" font-family="Helvetica, Segoe UI Emoji" font-size="14px" fill="#FFFFFF" text-anchor="middle" style="white-space: pre;" direction="ltr">3</text></g><g stroke-linecap="round" transform="translate(430 410) rotate(0 16 16)"><path d="M32 16 C32 16.93, 31.92 17.87, 31.76 18.78 C31.6 19.69, 31.35 20.6, 31.04 21.47 C30.72 22.34, 30.32 23.2, 29.86 24 C29.39 24.8, 28.85 25.58, 28.26 26.28 C27.66 26.99, 26.99 27.66, 26.28 28.26 C25.58 28.85, 24.8 29.39, 24 29.86 C23.2 30.32, 22.34 30.72, 21.47 31.04 C20.6 31.35, 19.69 31.6, 18.78 31.76 C17.87 31.92, 16.93 32, 16 32 C15.07 32, 14.13 31.92, 13.22 31.76 C12.31 31.6, 11.4 31.35, 10.53 31.04 C9.66 30.72, 8.8 30.32, 8 29.86 C7.2 29.39, 6.42 28.85, 5.72 28.26 C5.01 27.66, 4.34 26.99, 3.74 26.28 C3.15 25.58, 2.61 24.8, 2.14 24 C1.68 23.2, 1.28 22.34, 0.96 21.47 C0.65 20.6, 0.4 19.69, 0.24 18.78 C0.08 17.87, 0 16.93, 0 16 C0 15.07, 0.08 14.13, 0.24 13.22 C0.4 12.31, 0.65 11.4, 0.96 10.53 C1.28 9.66, 1.68 8.8, 2.14 8 C2.61 7.2, 3.15 6.42, 3.74 5.72 C4.34 5.01, 5.01 4.34, 5.72 3.74 C6.42 3.15, 7.2 2.61, 8 2.14 C8.8 1.68, 9.66 1.28, 10.53 0.96 C11.4 0.65, 12.31 0.4, 13.22 0.24 C14.13 0.08, 15.07 0, 16 0 C16.93 0, 17.87 0.08, 18.78 0.24 C19.69 0.4, 20.6 0.65, 21.47 0.96 C22.34 1.28, 23.2 1.68, 24 2.14 C24.8 2.61, 25.58 3.15, 26.28 3.74 C26.99 4.34, 27.66 5.01, 28.26 5.72 C28.85 6.42, 29.39 7.2, 29.86 8 C30.32 8.8, 30.72 9.66, 31.04 10.53 C31.35 11.4, 31.6 12.31, 31.76 13.22 C31.92 14.13, 31.96 15.54, 32 16 C32.04 16.46, 32.04 15.54, 32 16" stroke="none" stroke-width="0" fill="#202124"></path><path d="M32 16 C32 16.93, 31.92 17.87, 31.76 18.78 C31.6 19.69, 31.35 20.6, 31.04 21.47 C30.72 22.34, 30.32 23.2, 29.86 24 C29.39 24.8, 28.85 25.58, 28.26 26.28 C27.66 26.99, 26.99 27.66, 26.28 28.26 C25.58 28.85, 24.8 29.39, 24 29.86 C23.2 30.32, 22.34 30.72, 21.47 31.04 C20.6 31.35, 19.69 31.6, 18.78 31.76 C17.87 31.92, 16.93 32, 16 32 C15.07 32, 14.13 31.92, 13.22 31.76 C12.31 31.6, 11.4 31.35, 10.53 31.04 C9.66 30.72, 8.8 30.32, 8 29.86 C7.2 29.39, 6.42 28.85, 5.72 28.26 C5.01 27.66, 4.34 26.99, 3.74 26.28 C3.15 25.58, 2.61 24.8, 2.14 24 C1.68 23.2, 1.28 22.34, 0.96 21.47 C0.65 20.6, 0.4 19.69, 0.24 18.78 C0.08 17.87, 0 16.93, 0 16 C0 15.07, 0.08 14.13, 0.24 13.22 C0.4 12.31, 0.65 11.4, 0.96 10.53 C1.28 9.66, 1.68 8.8, 2.14 8 C2.61 7.2, 3.15 6.42, 3.74 5.72 C4.34 5.01, 5.01 4.34, 5.72 3.74 C6.42 3.15, 7.2 2.61, 8 2.14 C8.8 1.68, 9.66 1.28, 10.53 0.96 C11.4 0.65, 12.31 0.4, 13.22 0.24 C14.13 0.08, 15.07 0, 16 0 C16.93 0, 17.87 0.08, 18.78 0.24 C19.69 0.4, 20.6 0.65, 21.47 0.96 C22.34 1.28, 23.2 1.68, 24 2.14 C24.8 2.61, 25.58 3.15, 26.28 3.74 C26.99 4.34, 27.66 5.01, 28.26 5.72 C28.85 6.42, 29.39 7.2, 29.86 8 C30.32 8.8, 30.72 9.66, 31.04 10.53 C31.35 11.4, 31.6 12.31, 31.76 13.22 C31.92 14.13, 31.96 15.54, 32 16 C32.04 16.46, 32.04 15.54, 32 16" stroke="#202124" stroke-width="2" fill="none"></path></g><g transform="translate(440.5 418) rotate(0 4.5 8)"><text x="4.5" y="13" font-family="Helvetica, Segoe UI Emoji" font-size="14px" fill="#FFFFFF" text-anchor="middle" style="white-space: pre;" direction="ltr">4</text></g><g stroke-linecap="round" transform="translate(690 550) rotate(0 16 16)"><path d="M32 16 C32 16.93, 31.92 17.87, 31.76 18.78 C31.6 19.69, 31.35 20.6, 31.04 21.47 C30.72 22.34, 30.32 23.2, 29.86 24 C29.39 24.8, 28.85 25.58, 28.26 26.28 C27.66 26.99, 26.99 27.66, 26.28 28.26 C25.58 28.85, 24.8 29.39, 24 29.86 C23.2 30.32, 22.34 30.72, 21.47 31.04 C20.6 31.35, 19.69 31.6, 18.78 31.76 C17.87 31.92, 16.93 32, 16 32 C15.07 32, 14.13 31.92, 13.22 31.76 C12.31 31.6, 11.4 31.35, 10.53 31.04 C9.66 30.72, 8.8 30.32, 8 29.86 C7.2 29.39, 6.42 28.85, 5.72 28.26 C5.01 27.66, 4.34 26.99, 3.74 26.28 C3.15 25.58, 2.61 24.8, 2.14 24 C1.68 23.2, 1.28 22.34, 0.96 21.47 C0.65 20.6, 0.4 19.69, 0.24 18.78 C0.08 17.87, 0 16.93, 0 16 C0 15.07, 0.08 14.13, 0.24 13.22 C0.4 12.31, 0.65 11.4, 0.96 10.53 C1.28 9.66, 1.68 8.8, 2.14 8 C2.61 7.2, 3.15 6.42, 3.74 5.72 C4.34 5.01, 5.01 4.34, 5.72 3.74 C6.42 3.15, 7.2 2.61, 8 2.14 C8.8 1.68, 9.66 1.28, 10.53 0.96 C11.4 0.65, 12.31 0.4, 13.22 0.24 C14.13 0.08, 15.07 0, 16 0 C16.93 0, 17.87 0.08, 18.78 0.24 C19.69 0.4, 20.6 0.65, 21.47 0.96 C22.34 1.28, 23.2 1.68, 24 2.14 C24.8 2.61, 25.58 3.15, 26.28 3.74 C26.99 4.34, 27.66 5.01, 28.26 5.72 C28.85 6.42, 29.39 7.2, 29.86 8 C30.32 8.8, 30.72 9.66, 31.04 10.53 C31.35 11.4, 31.6 12.31, 31.76 13.22 C31.92 14.13, 31.96 15.54, 32 16 C32.04 16.46, 32.04 15.54, 32 16" stroke="none" stroke-width="0" fill="#202124"></path><path d="M32 16 C32 16.93, 31.92 17.87, 31.76 18.78 C31.6 19.69, 31.35 20.6, 31.04 21.47 C30.72 22.34, 30.32 23.2, 29.86 24 C29.39 24.8, 28.85 25.58, 28.26 26.28 C27.66 26.99, 26.99 27.66, 26.28 28.26 C25.58 28.85, 24.8 29.39, 24 29.86 C23.2 30.32, 22.34 30.72, 21.47 31.04 C20.6 31.35, 19.69 31.6, 18.78 31.76 C17.87 31.92, 16.93 32, 16 32 C15.07 32, 14.13 31.92, 13.22 31.76 C12.31 31.6, 11.4 31.35, 10.53 31.04 C9.66 30.72, 8.8 30.32, 8 29.86 C7.2 29.39, 6.42 28.85, 5.72 28.26 C5.01 27.66, 4.34 26.99, 3.74 26.28 C3.15 25.58, 2.61 24.8, 2.14 24 C1.68 23.2, 1.28 22.34, 0.96 21.47 C0.65 20.6, 0.4 19.69, 0.24 18.78 C0.08 17.87, 0 16.93, 0 16 C0 15.07, 0.08 14.13, 0.24 13.22 C0.4 12.31, 0.65 11.4, 0.96 10.53 C1.28 9.66, 1.68 8.8, 2.14 8 C2.61 7.2, 3.15 6.42, 3.74 5.72 C4.34 5.01, 5.01 4.34, 5.72 3.74 C6.42 3.15, 7.2 2.61, 8 2.14 C8.8 1.68, 9.66 1.28, 10.53 0.96 C11.4 0.65, 12.31 0.4, 13.22 0.24 C14.13 0.08, 15.07 0, 16 0 C16.93 0, 17.87 0.08, 18.78 0.24 C19.69 0.4, 20.6 0.65, 21.47 0.96 C22.34 1.28, 23.2 1.68, 24 2.14 C24.8 2.61, 25.58 3.15, 26.28 3.74 C26.99 4.34, 27.66 5.01, 28.26 5.72 C28.85 6.42, 29.39 7.2, 29.86 8 C30.32 8.8, 30.72 9.66, 31.04 10.53 C31.35 11.4, 31.6 12.31, 31.76 13.22 C31.92 14.13, 31.96 15.54, 32 16 C32.04 16.46, 32.04 15.54, 32 16" stroke="#202124" stroke-width="2" fill="none"></path></g><g transform="translate(700.5 558) rotate(0 4.5 8)"><text x="4.5" y="13" font-family="Helvetica, Segoe UI Emoji" font-size="14px" fill="#FFFFFF" text-anchor="middle" style="white-space: pre;" direction="ltr">5</text></g><g stroke-linecap="round" transform="translate(110 430) rotate(0 120 40)"><path d="M8 0 L235.5 0.5 L238 2 L239.5 4.5 L240 8 L239.5 75.5 L238 78 L235.5 79.5 L232 80 L4.5 79.5 L2 78 L0.5 75.5 L0 72 L0 8 L0.5 4.5 L2 2 L4.5 0.5 L8 0" stroke="none" stroke-width="0" fill="#FFF"></path><path d="M8 0 M8 0 C93.94 0, 179.88 0, 232 0 M8 0 C79.49 0, 150.98 0, 232 0 M232 0 C237.33 0, 240 2.67, 240 8 M232 0 C237.33 0, 240 2.67, 240 8 M240 8 C240 23.58, 240 39.16, 240 72 M240 8 C240 25.57, 240 43.14, 240 72 M240 72 C240 77.33, 237.33 80, 232 80 M240 72 C240 77.33, 237.33 80, 232 80 M232 80 C149.51 80, 67.01 80, 8 80 M232 80 C156.06 80, 80.12 80, 8 80 M8 80 C2.67 80, 0 77.33, 0 72 M8 80 C2.67 80, 0 77.33, 0 72 M0 72 C0 55.7, 0 39.39, 0 8 M0 72 C0 49.41, 0 26.82, 0 8 M0 8 C0 2.67, 2.67 0, 8 0 M0 8 C0 2.67, 2.67 0, 8 0" stroke="#202124" stroke-width="1" fill="none"></path></g><g transform="translate(126 446) rotate(0 80 9)"><text x="0" y="16" font-family="GoogleSans_Medium, Segoe UI Emoji" font-size="16px" fill="#1A73E8" text-anchor="start" style="white-space: pre;" direction="ltr">Cloud Run</text></g><g transform="translate(126 468) rotate(0 32.5 9.5)"><text x="0" y="15" font-family="Helvetica, Segoe UI Emoji" font-size="16px" fill="#202124" text-anchor="start" style="white-space: pre;" direction="ltr">Frontend</text></g><g stroke-linecap="round"><g transform="translate(318.90666675567627 448.6266667842865) rotate(0 6.233334064483643 4.6866666078567505)" fill-rule="evenodd"><path d="M0 0 L3.11 9.37 L12.47 9.37 L0 0 L0 0" stroke="none" stroke-width="0" fill="#aecbfa" fill-rule="evenodd"></path><path d="M0 0 C0.8 2.42, 1.61 4.83, 3.11 9.37 M0 0 C1.21 3.64, 2.42 7.28, 3.11 9.37 M3.11 9.37 C5.99 9.37, 8.86 9.37, 12.47 9.37 M3.11 9.37 C6.8 9.37, 10.48 9.37, 12.47 9.37 M12.47 9.37 C9.71 7.3, 6.96 5.23, 0 0 M12.47 9.37 C8.6 6.46, 4.73 3.56, 0 0 M0 0 C0 0, 0 0, 0 0 M0 0 C0 0, 0 0, 0 0 M0 0 C0 0, 0 0, 0 0 M0 0 C0 0, 0 0, 0 0" stroke="transparent" stroke-width="1" fill="none"></path></g></g><g stroke-linecap="round"><g transform="translate(331.37333488464355 458) rotate(0 -6.233334064483643 4.686667442321777)" fill-rule="evenodd"><path d="M0 0 L-9.35 0 L-12.47 9.37 L0 0 L0 0" stroke="none" stroke-width="0" fill="#4285f4" fill-rule="evenodd"></path><path d="M0 0 C-3.49 0, -6.99 0, -9.35 0 M0 0 C-2.41 0, -4.82 0, -9.35 0 M-9.35 0 C-10.03 2.03, -10.7 4.05, -12.47 9.37 M-9.35 0 C-10.2 2.54, -11.04 5.09, -12.47 9.37 M-12.47 9.37 C-8.85 6.65, -5.23 3.93, 0 0 M-12.47 9.37 C-8.83 6.64, -5.2 3.91, 0 0 M0 0 C0 0, 0 0, 0 0 M0 0 C0 0, 0 0, 0 0 M0 0 C0 0, 0 0, 0 0 M0 0 C0 0, 0 0, 0 0" stroke="transparent" stroke-width="1" fill="none"></path></g></g><g stroke-linecap="round"><g transform="translate(313.44000005722046 467.37333488464355) rotate(0 2.7333333492279053 -4.686667442321777)" fill-rule="evenodd"><path d="M0 0 L3.13 -1.56 L5.47 -9.37 L2.34 -9.37 L0 0 L0 0" stroke="none" stroke-width="0" fill="#4285f4" fill-rule="evenodd"></path><path d="M0 0 C0.86 -0.43, 1.72 -0.86, 3.13 -1.56 M0 0 C0.84 -0.42, 1.67 -0.84, 3.13 -1.56 M3.13 -1.56 C4 -4.46, 4.86 -7.36, 5.47 -9.37 M3.13 -1.56 C4.03 -4.56, 4.93 -7.57, 5.47 -9.37 M5.47 -9.37 C4.43 -9.37, 3.39 -9.37, 2.34 -9.37 M5.47 -9.37 C4.51 -9.37, 3.56 -9.37, 2.34 -9.37 M2.34 -9.37 C1.86 -7.44, 1.38 -5.51, 0 0 M2.34 -9.37 C1.77 -7.09, 1.2 -4.8, 0 0 M0 0 C0 0, 0 0, 0 0 M0 0 C0 0, 0 0, 0 0 M0 0 C0 0, 0 0, 0 0 M0 0 C0 0, 0 0, 0 0" stroke="transparent" stroke-width="1" fill="none"></path></g></g><g stroke-linecap="round"><g transform="translate(313.44000005722046 448.6266667842865) rotate(0 2.7333333492279053 4.6866666078567505)" fill-rule="evenodd"><path d="M0 0 L2.34 9.37 L5.47 9.37 L3.13 1.56 L0 0 L0 0" stroke="none" stroke-width="0" fill="#aecbfa" fill-rule="evenodd"></path><path d="M0 0 C0.65 2.62, 1.31 5.24, 2.34 9.37 M0 0 C0.47 1.9, 0.95 3.8, 2.34 9.37 M2.34 9.37 C3 9.37, 3.67 9.37, 5.47 9.37 M2.34 9.37 C3.37 9.37, 4.4 9.37, 5.47 9.37 M5.47 9.37 C4.81 7.18, 4.15 4.98, 3.13 1.56 M5.47 9.37 C4.99 7.78, 4.51 6.19, 3.13 1.56 M3.13 1.56 C2.17 1.08, 1.21 0.61, 0 0 M3.13 1.56 C2.09 1.04, 1.05 0.53, 0 0 M0 0 C0 0, 0 0, 0 0 M0 0 C0 0, 0 0, 0 0 M0 0 C0 0, 0 0, 0 0 M0 0 C0 0, 0 0, 0 0" stroke="transparent" stroke-width="1" fill="none"></path></g></g><g stroke-linecap="round" transform="translate(110 550) rotate(0 120 40)"><path d="M8 0 L235.5 0.5 L238 2 L239.5 4.5 L240 8 L239.5 75.5 L238 78 L235.5 79.5 L232 80 L4.5 79.5 L2 78 L0.5 75.5 L0 72 L0 8 L0.5 4.5 L2 2 L4.5 0.5 L8 0" stroke="none" stroke-width="0" fill="#FFF"></path><path d="M8 0 M8 0 C62.74 0, 117.48 0, 232 0 M8 0 C62.47 0, 116.93 0, 232 0 M232 0 C237.33 0, 240 2.67, 240 8 M232 0 C237.33 0, 240 2.67, 240 8 M240 8 C240 32.88, 240 57.76, 240 72 M240 8 C240 21.6, 240 35.2, 240 72 M240 72 C240 77.33, 237.33 80, 232 80 M240 72 C240 77.33, 237.33 80, 232 80 M232 80 C174.85 80, 117.7 80, 8 80 M232 80 C162 80, 92 80, 8 80 M8 80 C2.67 80, 0 77.33, 0 72 M8 80 C2.67 80, 0 77.33, 0 72 M0 72 C0 57.2, 0 42.4, 0 8 M0 72 C0 49.21, 0 26.41, 0 8 M0 8 C0 2.67, 2.67 0, 8 0 M0 8 C0 2.67, 2.67 0, 8 0" stroke="#202124" stroke-width="1" fill="none"></path></g><g transform="translate(126 566) rotate(0 80 9)"><text x="0" y="16" font-family="GoogleSans_Medium, Segoe UI Emoji" font-size="16px" fill="#1A73E8" text-anchor="start" style="white-space: pre;" direction="ltr">Cloud Run</text></g><g transform="translate(126 588) rotate(0 31.5 9.5)"><text x="0" y="15" font-family="Helvetica, Segoe UI Emoji" font-size="16px" fill="#202124" text-anchor="start" style="white-space: pre;" direction="ltr">Backend</text></g><g stroke-linecap="round"><g transform="translate(318.90666675567627 568.6266667842865) rotate(0 6.233334064483643 4.6866666078567505)" fill-rule="evenodd"><path d="M0 0 L3.11 9.37 L12.47 9.37 L0 0 L0 0" stroke="none" stroke-width="0" fill="#aecbfa" fill-rule="evenodd"></path><path d="M0 0 C0.97 2.93, 1.95 5.87, 3.11 9.37 M0 0 C0.89 2.66, 1.77 5.33, 3.11 9.37 M3.11 9.37 C6.42 9.37, 9.72 9.37, 12.47 9.37 M3.11 9.37 C5.4 9.37, 7.68 9.37, 12.47 9.37 M12.47 9.37 C9.87 7.42, 7.27 5.46, 0 0 M12.47 9.37 C7.62 5.73, 2.77 2.09, 0 0 M0 0 C0 0, 0 0, 0 0 M0 0 C0 0, 0 0, 0 0 M0 0 C0 0, 0 0, 0 0 M0 0 C0 0, 0 0, 0 0" stroke="transparent" stroke-width="1" fill="none"></path></g></g><g stroke-linecap="round"><g transform="translate(331.37333488464355 578) rotate(0 -6.233334064483643 4.686667442321777)" fill-rule="evenodd"><path d="M0 0 L-9.35 0 L-12.47 9.37 L0 0 L0 0" stroke="none" stroke-width="0" fill="#4285f4" fill-rule="evenodd"></path><path d="M0 0 C-2.09 0, -4.19 0, -9.35 0 M0 0 C-3.28 0, -6.56 0, -9.35 0 M-9.35 0 C-10.18 2.5, -11.01 4.99, -12.47 9.37 M-9.35 0 C-9.99 1.92, -10.63 3.83, -12.47 9.37 M-12.47 9.37 C-9.12 6.86, -5.78 4.35, 0 0 M-12.47 9.37 C-8.23 6.18, -3.98 3, 0 0 M0 0 C0 0, 0 0, 0 0 M0 0 C0 0, 0 0, 0 0 M0 0 C0 0, 0 0, 0 0 M0 0 C0 0, 0 0, 0 0" stroke="transparent" stroke-width="1" fill="none"></path></g></g><g stroke-linecap="round"><g transform="translate(313.44000005722046 587.3733348846436) rotate(0 2.7333333492279053 -4.686667442321777)" fill-rule="evenodd"><path d="M0 0 L3.13 -1.56 L5.47 -9.37 L2.34 -9.37 L0 0 L0 0" stroke="none" stroke-width="0" fill="#4285f4" fill-rule="evenodd"></path><path d="M0 0 C0.66 -0.33, 1.32 -0.66, 3.13 -1.56 M0 0 C0.66 -0.33, 1.32 -0.66, 3.13 -1.56 M3.13 -1.56 C3.66 -3.34, 4.19 -5.12, 5.47 -9.37 M3.13 -1.56 C3.83 -3.92, 4.54 -6.28, 5.47 -9.37 M5.47 -9.37 C4.72 -9.37, 3.97 -9.37, 2.34 -9.37 M5.47 -9.37 C4.57 -9.37, 3.68 -9.37, 2.34 -9.37 M2.34 -9.37 C1.61 -6.44, 0.88 -3.51, 0 0 M2.34 -9.37 C1.66 -6.65, 0.98 -3.93, 0 0 M0 0 C0 0, 0 0, 0 0 M0 0 C0 0, 0 0, 0 0 M0 0 C0 0, 0 0, 0 0 M0 0 C0 0, 0 0, 0 0" stroke="transparent" stroke-width="1" fill="none"></path></g></g><g stroke-linecap="round"><g transform="translate(313.44000005722046 568.6266667842865) rotate(0 2.7333333492279053 4.6866666078567505)" fill-rule="evenodd"><path d="M0 0 L2.34 9.37 L5.47 9.37 L3.13 1.56 L0 0 L0 0" stroke="none" stroke-width="0" fill="#aecbfa" fill-rule="evenodd"></path><path d="M0 0 C0.91 3.64, 1.82 7.28, 2.34 9.37 M0 0 C0.59 2.36, 1.18 4.73, 2.34 9.37 M2.34 9.37 C3.13 9.37, 3.91 9.37, 5.47 9.37 M2.34 9.37 C3.04 9.37, 3.73 9.37, 5.47 9.37 M5.47 9.37 C4.81 7.17, 4.15 4.98, 3.13 1.56 M5.47 9.37 C4.96 7.67, 4.45 5.97, 3.13 1.56 M3.13 1.56 C1.96 0.98, 0.8 0.4, 0 0 M3.13 1.56 C2.37 1.18, 1.62 0.81, 0 0 M0 0 C0 0, 0 0, 0 0 M0 0 C0 0, 0 0, 0 0 M0 0 C0 0, 0 0, 0 0 M0 0 C0 0, 0 0, 0 0" stroke="transparent" stroke-width="1" fill="none"></path></g></g><g stroke-linecap="round" transform="translate(290 330) rotate(0 120 30)"><path d="M6 0 L236.63 0.38 L238.5 1.5 L240 6 L239.63 56.63 L238.5 58.5 L234 60 L3.38 59.63 L1.5 58.5 L0 54 L0 6 L1.5 1.5 L6 0" stroke="none" stroke-width="0" fill="#FFF"></path><path d="M6 0 M6 0 C72.16 0, 138.32 0, 234 0 M6 0 C76.92 0, 147.85 0, 234 0 M234 0 C238 0, 240 2, 240 6 M234 0 C238 0, 240 2, 240 6 M240 6 C240 19.71, 240 33.43, 240 54 M240 6 C240 20.3, 240 34.6, 240 54 M240 54 C240 58, 238 60, 234 60 M240 54 C240 58, 238 60, 234 60 M234 60 C175.16 60, 116.31 60, 6 60 M234 60 C157.5 60, 81.01 60, 6 60 M6 60 C2 60, 0 58, 0 54 M6 60 C2 60, 0 58, 0 54 M0 54 C0 41.01, 0 28.03, 0 6 M0 54 C0 38.23, 0 22.45, 0 6 M0 6 C0 2, 2 0, 6 0 M0 6 C0 2, 2 0, 6 0" stroke="#202124" stroke-width="1" fill="none"></path></g><g transform="translate(306 346) rotate(0 80 9)"><text x="0" y="16" font-family="GoogleSans_Medium, Segoe UI Emoji" font-size="16px" fill="#1A73E8" text-anchor="start" style="white-space: pre;" direction="ltr">Cloud Load Balancing</text></g><g stroke-linecap="round"><g transform="translate(502.8800001144409 356.8290901184082) rotate(0 -1.0254549980163574 -2.0509088039398193)" fill-rule="evenodd"><path d="M0 0 L-2.05 0 L-2.05 -4.1 L0 -4.1 L0 0" stroke="none" stroke-width="0" fill="#4285f4" fill-rule="evenodd"></path><path d="M0 0 C-0.45 0, -0.89 0, -2.05 0 M0 0 C-0.76 0, -1.53 0, -2.05 0 M-2.05 0 C-2.05 -0.99, -2.05 -1.98, -2.05 -4.1 M-2.05 0 C-2.05 -1.14, -2.05 -2.28, -2.05 -4.1 M-2.05 -4.1 C-1.41 -4.1, -0.77 -4.1, 0 -4.1 M-2.05 -4.1 C-1.47 -4.1, -0.89 -4.1, 0 -4.1 M0 -4.1 C0 -2.65, 0 -1.2, 0 0 M0 -4.1 C0 -2.61, 0 -1.11, 0 0 M0 0 C0 0, 0 0, 0 0 M0 0 C0 0, 0 0, 0 0" stroke="#00000000" stroke-width="1" fill="none"></path></g></g><g stroke-linecap="round"><g transform="translate(493.65090894699097 356.8290901184082) rotate(0 8.203635454177856 2.563636302947998)" fill-rule="evenodd"><path d="M0 0 L0 5.13 L2.05 5.13 L2.05 2.05 L7.18 2.05 L7.18 5.13 L9.23 5.13 L9.23 2.05 L14.36 2.05 L14.36 5.13 L16.41 5.13 L16.41 0 L0 0" stroke="none" stroke-width="0" fill="#669df6" fill-rule="evenodd"></path><path d="M0 0 C0 1.27, 0 2.54, 0 5.13 M0 0 C0 1.13, 0 2.27, 0 5.13 M0 5.13 C0.82 5.13, 1.64 5.13, 2.05 5.13 M0 5.13 C0.64 5.13, 1.28 5.13, 2.05 5.13 M2.05 5.13 C2.05 3.95, 2.05 2.78, 2.05 2.05 M2.05 5.13 C2.05 3.98, 2.05 2.84, 2.05 2.05 M2.05 2.05 C3.34 2.05, 4.64 2.05, 7.18 2.05 M2.05 2.05 C3.24 2.05, 4.44 2.05, 7.18 2.05 M7.18 2.05 C7.18 2.8, 7.18 3.55, 7.18 5.13 M7.18 2.05 C7.18 2.76, 7.18 3.47, 7.18 5.13 M7.18 5.13 C7.65 5.13, 8.11 5.13, 9.23 5.13 M7.18 5.13 C7.78 5.13, 8.37 5.13, 9.23 5.13 M9.23 5.13 C9.23 4.25, 9.23 3.37, 9.23 2.05 M9.23 5.13 C9.23 4.16, 9.23 3.19, 9.23 2.05 M9.23 2.05 C11.11 2.05, 12.99 2.05, 14.36 2.05 M9.23 2.05 C10.55 2.05, 11.87 2.05, 14.36 2.05 M14.36 2.05 C14.36 2.86, 14.36 3.66, 14.36 5.13 M14.36 2.05 C14.36 3.03, 14.36 4, 14.36 5.13 M14.36 5.13 C14.89 5.13, 15.43 5.13, 16.41 5.13 M14.36 5.13 C14.81 5.13, 15.26 5.13, 16.41 5.13 M16.41 5.13 C16.41 3.44, 16.41 1.76, 16.41 0 M16.41 5.13 C16.41 4.08, 16.41 3.04, 16.41 0 M16.41 0 C10.55 0, 4.7 0, 0 0 M16.41 0 C11.53 0, 6.65 0, 0 0 M0 0 C0 0, 0 0, 0 0 M0 0 C0 0, 0 0, 0 0" stroke="#00000000" stroke-width="1" fill="none"></path></g></g><g stroke-linecap="round"><g transform="translate(495.70181798934937 347.59999990463257) rotate(0 6.152727365493774 2.563636302947998)" fill-rule="evenodd"><path d="M0 0 L12.31 0 L12.31 5.13 L0 5.13 L0 0" stroke="none" stroke-width="0" fill="#aecbfa" fill-rule="evenodd"></path><path d="M0 0 C3.01 0, 6.01 0, 12.31 0 M0 0 C3.61 0, 7.22 0, 12.31 0 M12.31 0 C12.31 1.82, 12.31 3.64, 12.31 5.13 M12.31 0 C12.31 1.76, 12.31 3.52, 12.31 5.13 M12.31 5.13 C8.76 5.13, 5.22 5.13, 0 5.13 M12.31 5.13 C7.58 5.13, 2.85 5.13, 0 5.13 M0 5.13 C0 3.16, 0 1.18, 0 0 M0 5.13 C0 3.55, 0 1.97, 0 0 M0 0 C0 0, 0 0, 0 0 M0 0 C0 0, 0 0, 0 0" stroke="#00000000" stroke-width="1" fill="none"></path></g></g><g stroke-linecap="round"><g transform="translate(501.8545446395874 347.59999990463257) rotate(0 3.076364040374756 2.563636302947998)" fill-rule="evenodd"><path d="M0 0 L6.15 0 L6.15 5.13 L0 5.13 L0 0" stroke="none" stroke-width="0" fill="#669df6" fill-rule="evenodd"></path><path d="M0 0 C2.13 0, 4.26 0, 6.15 0 M0 0 C1.82 0, 3.64 0, 6.15 0 M6.15 0 C6.15 1.36, 6.15 2.72, 6.15 5.13 M6.15 0 C6.15 1.28, 6.15 2.56, 6.15 5.13 M6.15 5.13 C3.8 5.13, 1.44 5.13, 0 5.13 M6.15 5.13 C4.91 5.13, 3.66 5.13, 0 5.13 M0 5.13 C0 3.49, 0 1.85, 0 0 M0 5.13 C0 3.77, 0 2.42, 0 0 M0 0 C0 0, 0 0, 0 0 M0 0 C0 0, 0 0, 0 0" stroke="#00000000" stroke-width="1" fill="none"></path></g></g><g stroke-linecap="round"><g transform="translate(505.9563627243042 361.9563627243042) rotate(0 3.076364040374756 3.076364040374756)" fill-rule="evenodd"><path d="M0 0 L6.15 0 L6.15 6.15 L0 6.15 L0 0" stroke="none" stroke-width="0" fill="#aecbfa" fill-rule="evenodd"></path><path d="M0 0 C1.31 0, 2.62 0, 6.15 0 M0 0 C1.63 0, 3.25 0, 6.15 0 M6.15 0 C6.15 1.92, 6.15 3.85, 6.15 6.15 M6.15 0 C6.15 1.6, 6.15 3.19, 6.15 6.15 M6.15 6.15 C3.96 6.15, 1.77 6.15, 0 6.15 M6.15 6.15 C3.71 6.15, 1.27 6.15, 0 6.15 M0 6.15 C0 4.53, 0 2.9, 0 0 M0 6.15 C0 3.84, 0 1.53, 0 0 M0 0 C0 0, 0 0, 0 0 M0 0 C0 0, 0 0, 0 0" stroke="#00000000" stroke-width="1" fill="none"></path></g></g><g stroke-linecap="round"><g transform="translate(491.59999990463257 361.9563627243042) rotate(0 3.0763635635375977 3.076364040374756)" fill-rule="evenodd"><path d="M0 0 L6.15 0 L6.15 6.15 L0 6.15 L0 0" stroke="none" stroke-width="0" fill="#aecbfa" fill-rule="evenodd"></path><path d="M0 0 C1.83 0, 3.65 0, 6.15 0 M0 0 C2.31 0, 4.63 0, 6.15 0 M6.15 0 C6.15 2.01, 6.15 4.02, 6.15 6.15 M6.15 0 C6.15 1.48, 6.15 2.96, 6.15 6.15 M6.15 6.15 C4.15 6.15, 2.15 6.15, 0 6.15 M6.15 6.15 C4.6 6.15, 3.05 6.15, 0 6.15 M0 6.15 C0 4.52, 0 2.9, 0 0 M0 6.15 C0 3.97, 0 1.79, 0 0 M0 0 C0 0, 0 0, 0 0 M0 0 C0 0, 0 0, 0 0" stroke="#00000000" stroke-width="1" fill="none"></path></g></g><g stroke-linecap="round"><g transform="translate(494.6763639450073 361.9563627243042) rotate(0 1.5381815433502197 3.076364040374756)" fill-rule="evenodd"><path d="M0 0 L3.08 0 L3.08 6.15 L0 6.15 L0 0" stroke="none" stroke-width="0" fill="#669df6" fill-rule="evenodd"></path><path d="M0 0 C0.66 0, 1.32 0, 3.08 0 M0 0 C0.67 0, 1.34 0, 3.08 0 M3.08 0 C3.08 1.91, 3.08 3.83, 3.08 6.15 M3.08 0 C3.08 1.71, 3.08 3.41, 3.08 6.15 M3.08 6.15 C2.16 6.15, 1.24 6.15, 0 6.15 M3.08 6.15 C1.96 6.15, 0.85 6.15, 0 6.15 M0 6.15 C0 4.09, 0 2.02, 0 0 M0 6.15 C0 3.88, 0 1.61, 0 0 M0 0 C0 0, 0 0, 0 0 M0 0 C0 0, 0 0, 0 0" stroke="#00000000" stroke-width="1" fill="none"></path></g></g><g stroke-linecap="round"><g transform="translate(498.7781810760498 361.9563627243042) rotate(0 3.076364040374756 3.076364040374756)" fill-rule="evenodd"><path d="M0 0 L6.15 0 L6.15 6.15 L0 6.15 L0 0" stroke="none" stroke-width="0" fill="#aecbfa" fill-rule="evenodd"></path><path d="M0 0 C2.46 0, 4.92 0, 6.15 0 M0 0 C1.97 0, 3.94 0, 6.15 0 M6.15 0 C6.15 1.38, 6.15 2.77, 6.15 6.15 M6.15 0 C6.15 2.18, 6.15 4.36, 6.15 6.15 M6.15 6.15 C3.94 6.15, 1.73 6.15, 0 6.15 M6.15 6.15 C4.44 6.15, 2.73 6.15, 0 6.15 M0 6.15 C0 4.79, 0 3.42, 0 0 M0 6.15 C0 4.12, 0 2.09, 0 0 M0 0 C0 0, 0 0, 0 0 M0 0 C0 0, 0 0, 0 0" stroke="#00000000" stroke-width="1" fill="none"></path></g></g><g stroke-linecap="round"><g transform="translate(501.8545446395874 361.9563627243042) rotate(0 1.538182258605957 3.076364040374756)" fill-rule="evenodd"><path d="M0 0 L3.08 0 L3.08 6.15 L0 6.15 L0 0" stroke="none" stroke-width="0" fill="#669df6" fill-rule="evenodd"></path><path d="M0 0 C0.76 0, 1.53 0, 3.08 0 M0 0 C0.78 0, 1.57 0, 3.08 0 M3.08 0 C3.08 1.76, 3.08 3.52, 3.08 6.15 M3.08 0 C3.08 1.42, 3.08 2.85, 3.08 6.15 M3.08 6.15 C1.95 6.15, 0.82 6.15, 0 6.15 M3.08 6.15 C2.4 6.15, 1.72 6.15, 0 6.15 M0 6.15 C0 4.64, 0 3.12, 0 0 M0 6.15 C0 4.87, 0 3.59, 0 0 M0 0 C0 0, 0 0, 0 0 M0 0 C0 0, 0 0, 0 0" stroke="#00000000" stroke-width="1" fill="none"></path></g></g><g stroke-linecap="round"><g transform="translate(509.03272819519043 361.9563627243042) rotate(0 1.5381813049316406 3.076364040374756)" fill-rule="evenodd"><path d="M0 0 L3.08 0 L3.08 6.15 L0 6.15 L0 0" stroke="none" stroke-width="0" fill="#669df6" fill-rule="evenodd"></path><path d="M0 0 C1.19 0, 2.38 0, 3.08 0 M0 0 C0.64 0, 1.27 0, 3.08 0 M3.08 0 C3.08 2.14, 3.08 4.27, 3.08 6.15 M3.08 0 C3.08 1.95, 3.08 3.9, 3.08 6.15 M3.08 6.15 C2.45 6.15, 1.83 6.15, 0 6.15 M3.08 6.15 C2.37 6.15, 1.66 6.15, 0 6.15 M0 6.15 C0 4.87, 0 3.6, 0 0 M0 6.15 C0 4.66, 0 3.17, 0 0 M0 0 C0 0, 0 0, 0 0 M0 0 C0 0, 0 0, 0 0" stroke="#00000000" stroke-width="1" fill="none"></path></g></g><g stroke-linecap="round" transform="translate(110 690) rotate(0 120 40)"><path d="M8 0 L235.5 0.5 L238 2 L239.5 4.5 L240 8 L239.5 75.5 L238 78 L235.5 79.5 L232 80 L4.5 79.5 L2 78 L0.5 75.5 L0 72 L0 8 L0.5 4.5 L2 2 L4.5 0.5 L8 0" stroke="none" stroke-width="0" fill="#FFF"></path><path d="M8 0 M8 0 C87.53 0, 167.06 0, 232 0 M8 0 C69.19 0, 130.38 0, 232 0 M232 0 C237.33 0, 240 2.67, 240 8 M232 0 C237.33 0, 240 2.67, 240 8 M240 8 C240 29.74, 240 51.49, 240 72 M240 8 C240 28.96, 240 49.92, 240 72 M240 72 C240 77.33, 237.33 80, 232 80 M240 72 C240 77.33, 237.33 80, 232 80 M232 80 C158.93 80, 85.85 80, 8 80 M232 80 C177.62 80, 123.25 80, 8 80 M8 80 C2.67 80, 0 77.33, 0 72 M8 80 C2.67 80, 0 77.33, 0 72 M0 72 C0 53.63, 0 35.26, 0 8 M0 72 C0 54.95, 0 37.89, 0 8 M0 8 C0 2.67, 2.67 0, 8 0 M0 8 C0 2.67, 2.67 0, 8 0" stroke="#202124" stroke-width="1" fill="none"></path></g><g transform="translate(126 706) rotate(0 80 9)"><text x="0" y="16" font-family="GoogleSans_Medium, Segoe UI Emoji" font-size="16px" fill="#1A73E8" text-anchor="start" style="white-space: pre;" direction="ltr">Cloud Firestore</text></g><g transform="translate(126 728) rotate(0 58.5 9.5)"><text x="0" y="15" font-family="Helvetica, Segoe UI Emoji" font-size="16px" fill="#202124" text-anchor="start" style="white-space: pre;" direction="ltr">Image Metadata</text></g><g stroke-linecap="round"><g transform="translate(331 719) rotate(0 -4.5 0)" fill-rule="evenodd"><path d="M0 0 L-9 -4 L-9 0 L0 4 L0 0" stroke="none" stroke-width="0" fill="#669df6" fill-rule="evenodd"></path><path d="M0 0 C-3.16 -1.4, -6.32 -2.81, -9 -4 M0 0 C-2.85 -1.27, -5.69 -2.53, -9 -4 M-9 -4 C-9 -2.59, -9 -1.18, -9 0 M-9 -4 C-9 -2.63, -9 -1.27, -9 0 M-9 0 C-6.07 1.3, -3.14 2.61, 0 4 M-9 0 C-6.9 0.93, -4.81 1.86, 0 4 M0 4 C0 2.54, 0 1.07, 0 0 M0 4 C0 2.79, 0 1.57, 0 0 M0 0 C0 0, 0 0, 0 0 M0 0 C0 0, 0 0, 0 0" stroke="#00000000" stroke-width="1" fill="none"></path></g></g><g stroke-linecap="round"><g transform="translate(331 712) rotate(0 -4.5 0)" fill-rule="evenodd"><path d="M0 0 L-9 -4 L-9 0 L0 4 L0 0" stroke="none" stroke-width="0" fill="#669df6" fill-rule="evenodd"></path><path d="M0 0 C-2.12 -0.94, -4.24 -1.88, -9 -4 M0 0 C-2.99 -1.33, -5.97 -2.66, -9 -4 M-9 -4 C-9 -3.02, -9 -2.04, -9 0 M-9 -4 C-9 -2.6, -9 -1.2, -9 0 M-9 0 C-6.54 1.09, -4.07 2.19, 0 4 M-9 0 C-6.12 1.28, -3.25 2.56, 0 4 M0 4 C0 2.87, 0 1.74, 0 0 M0 4 C0 2.82, 0 1.63, 0 0 M0 0 C0 0, 0 0, 0 0 M0 0 C0 0, 0 0, 0 0" stroke="#00000000" stroke-width="1" fill="none"></path></g></g><g stroke-linecap="round"><g transform="translate(313 712) rotate(0 4.5 0)" fill-rule="evenodd"><path d="M0 0 L9 -4 L9 0 L0 4 L0 0 L0 0" stroke="none" stroke-width="0" fill="#aecbfa" fill-rule="evenodd"></path><path d="M0 0 C2.35 -1.05, 4.71 -2.09, 9 -4 M0 0 C2.97 -1.32, 5.95 -2.64, 9 -4 M9 -4 C9 -2.84, 9 -1.69, 9 0 M9 -4 C9 -3.2, 9 -2.4, 9 0 M9 0 C6.12 1.28, 3.23 2.56, 0 4 M9 0 C6.65 1.04, 4.31 2.09, 0 4 M0 4 C0 3.2, 0 2.39, 0 0 M0 4 C0 2.75, 0 1.5, 0 0 M0 0 C0 0, 0 0, 0 0 M0 0 C0 0, 0 0, 0 0 M0 0 C0 0, 0 0, 0 0 M0 0 C0 0, 0 0, 0 0" stroke="#00000000" stroke-width="1" fill="none"></path></g></g><g stroke-linecap="round"><g transform="translate(313 719) rotate(0 4.5 0)" fill-rule="evenodd"><path d="M0 0 L9 -4 L9 0 L0 4 L0 0 L0 0" stroke="none" stroke-width="0" fill="#aecbfa" fill-rule="evenodd"></path><path d="M0 0 C2.27 -1.01, 4.53 -2.01, 9 -4 M0 0 C3.3 -1.47, 6.6 -2.93, 9 -4 M9 -4 C9 -2.47, 9 -0.94, 9 0 M9 -4 C9 -2.61, 9 -1.22, 9 0 M9 0 C5.78 1.43, 2.55 2.87, 0 4 M9 0 C6.57 1.08, 4.14 2.16, 0 4 M0 4 C0 2.67, 0 1.34, 0 0 M0 4 C0 2.47, 0 0.94, 0 0 M0 0 C0 0, 0 0, 0 0 M0 0 C0 0, 0 0, 0 0 M0 0 C0 0, 0 0, 0 0 M0 0 C0 0, 0 0, 0 0" stroke="#00000000" stroke-width="1" fill="none"></path></g></g><g stroke-linecap="round"><g transform="translate(322 724) rotate(0 3.939999580383301 1.25)" fill-rule="evenodd"><path d="M0 0 L3.37 -1.5 L7.88 0.5 L0 4 L0 0 L0 0" stroke="none" stroke-width="0" fill="#4285f4" fill-rule="evenodd"></path><path d="M0 0 C1.04 -0.46, 2.08 -0.93, 3.37 -1.5 M0 0 C1.23 -0.55, 2.47 -1.1, 3.37 -1.5 M3.37 -1.5 C4.93 -0.81, 6.5 -0.11, 7.88 0.5 M3.37 -1.5 C4.98 -0.79, 6.59 -0.07, 7.88 0.5 M7.88 0.5 C4.85 1.85, 1.82 3.19, 0 4 M7.88 0.5 C6.18 1.26, 4.48 2.01, 0 4 M0 4 C0 3.17, 0 2.34, 0 0 M0 4 C0 2.43, 0 0.86, 0 0 M0 0 C0 0, 0 0, 0 0 M0 0 C0 0, 0 0, 0 0 M0 0 C0 0, 0 0, 0 0 M0 0 C0 0, 0 0, 0 0" stroke="#00000000" stroke-width="1" fill="none"></path></g></g><g stroke-linecap="round" transform="translate(450 690) rotate(0 120 40)"><path d="M8 0 L235.5 0.5 L238 2 L239.5 4.5 L240 8 L239.5 75.5 L238 78 L235.5 79.5 L232 80 L4.5 79.5 L2 78 L0.5 75.5 L0 72 L0 8 L0.5 4.5 L2 2 L4.5 0.5 L8 0" stroke="none" stroke-width="0" fill="#FFF"></path><path d="M8 0 M8 0 C86.67 0, 165.35 0, 232 0 M8 0 C94.54 0, 181.09 0, 232 0 M232 0 C237.33 0, 240 2.67, 240 8 M232 0 C237.33 0, 240 2.67, 240 8 M240 8 C240 26.47, 240 44.95, 240 72 M240 8 C240 32.06, 240 56.12, 240 72 M240 72 C240 77.33, 237.33 80, 232 80 M240 72 C240 77.33, 237.33 80, 232 80 M232 80 C168.31 80, 104.62 80, 8 80 M232 80 C151.31 80, 70.63 80, 8 80 M8 80 C2.67 80, 0 77.33, 0 72 M8 80 C2.67 80, 0 77.33, 0 72 M0 72 C0 51.38, 0 30.76, 0 8 M0 72 C0 58, 0 44.01, 0 8 M0 8 C0 2.67, 2.67 0, 8 0 M0 8 C0 2.67, 2.67 0, 8 0" stroke="#202124" stroke-width="1" fill="none"></path></g><g transform="translate(466 706) rotate(0 80 9)"><text x="0" y="16" font-family="GoogleSans_Medium, Segoe UI Emoji" font-size="16px" fill="#1A73E8" text-anchor="start" style="white-space: pre;" direction="ltr">Cloud Storage</text></g><g transform="translate(466 728) rotate(0 26.5 9.5)"><text x="0" y="15" font-family="Helvetica, Segoe UI Emoji" font-size="16px" fill="#202124" text-anchor="start" style="white-space: pre;" direction="ltr">Images</text></g><g stroke-linecap="round" transform="translate(652 710) rotate(0 10 3.5)"><path d="M0 0 L20 0 L20 7 L0 7" stroke="none" stroke-width="0" fill="#aecbfa"></path><path d="M0 0 C4.3 0, 8.59 0, 20 0 M0 0 C7.02 0, 14.05 0, 20 0 M20 0 C20 1.58, 20 3.16, 20 7 M20 0 C20 2.14, 20 4.28, 20 7 M20 7 C12.79 7, 5.58 7, 0 7 M20 7 C15.34 7, 10.68 7, 0 7 M0 7 C0 4.71, 0 2.42, 0 0 M0 7 C0 5.57, 0 4.15, 0 0" stroke="transparent" stroke-width="1" fill="none"></path></g><g stroke-linecap="round" transform="translate(670 710) rotate(0 1 3.5)"><path d="M0 0 L2 0 L2 7 L0 7" stroke="none" stroke-width="0" fill="#669df6"></path><path d="M0 0 C0.63 0, 1.26 0, 2 0 M0 0 C0.66 0, 1.32 0, 2 0 M2 0 C2 2.16, 2 4.32, 2 7 M2 0 C2 2.53, 2 5.05, 2 7 M2 7 C1.44 7, 0.87 7, 0 7 M2 7 C1.47 7, 0.94 7, 0 7 M0 7 C0 5.26, 0 3.51, 0 0 M0 7 C0 4.62, 0 2.24, 0 0" stroke="transparent" stroke-width="1" fill="none"></path></g><g stroke-linecap="round"><g transform="translate(672 710) rotate(0 -1 3.5)" fill-rule="evenodd"><path d="M0 0 L-2 0 L-2 7 L0 0 L0 0" stroke="none" stroke-width="0" fill="#4285f4" fill-rule="evenodd"></path><path d="M0 0 C-0.7 0, -1.41 0, -2 0 M0 0 C-0.64 0, -1.28 0, -2 0 M-2 0 C-2 2.38, -2 4.77, -2 7 M-2 0 C-2 1.75, -2 3.51, -2 7 M-2 7 C-1.52 5.33, -1.05 3.66, 0 0 M-2 7 C-1.45 5.07, -0.9 3.14, 0 0 M0 0 C0 0, 0 0, 0 0 M0 0 C0 0, 0 0, 0 0 M0 0 C0 0, 0 0, 0 0 M0 0 C0 0, 0 0, 0 0" stroke="#00000000" stroke-width="1" fill="none"></path></g></g><g stroke-linecap="round" transform="translate(652 710) rotate(0 1 3.5)"><path d="M0 0 L2 0 L2 7 L0 7" stroke="none" stroke-width="0" fill="#669df6"></path><path d="M0 0 C0.66 0, 1.31 0, 2 0 M0 0 C0.55 0, 1.09 0, 2 0 M2 0 C2 2.08, 2 4.15, 2 7 M2 0 C2 1.74, 2 3.48, 2 7 M2 7 C1.54 7, 1.07 7, 0 7 M2 7 C1.27 7, 0.54 7, 0 7 M0 7 C0 4.9, 0 2.8, 0 0 M0 7 C0 5.55, 0 4.1, 0 0" stroke="transparent" stroke-width="1" fill="none"></path></g><g stroke-linecap="round" transform="translate(656 713) rotate(0 3 0.5)"><path d="M0 0 L6 0 L6 1 L0 1" stroke="none" stroke-width="0" fill="#fff"></path><path d="M0 0 C1.76 0, 3.52 0, 6 0 M0 0 C1.59 0, 3.18 0, 6 0 M6 0 C6 0.35, 6 0.69, 6 1 M6 0 C6 0.32, 6 0.63, 6 1 M6 1 C4.34 1, 2.67 1, 0 1 M6 1 C4.73 1, 3.46 1, 0 1 M0 1 C0 0.78, 0 0.56, 0 0 M0 1 C0 0.68, 0 0.36, 0 0" stroke="transparent" stroke-width="1" fill="none"></path></g><g stroke-linecap="round" transform="translate(665 712) rotate(0 1.5 1.5)"><path d="M0.3 0 L3 0.3 L2.7 3 L0 2.7 L0.3 0" stroke="none" stroke-width="0" fill="#fff"></path><path d="M0.3 0 M0.3 0 C0.94 0, 1.57 0, 2.7 0 M0.3 0 C0.84 0, 1.38 0, 2.7 0 M2.7 0 C2.9 0, 3 0.1, 3 0.3 M2.7 0 C2.9 0, 3 0.1, 3 0.3 M3 0.3 C3 1.06, 3 1.82, 3 2.7 M3 0.3 C3 1.17, 3 2.03, 3 2.7 M3 2.7 C3 2.9, 2.9 3, 2.7 3 M3 2.7 C3 2.9, 2.9 3, 2.7 3 M2.7 3 C2.19 3, 1.68 3, 0.3 3 M2.7 3 C1.92 3, 1.13 3, 0.3 3 M0.3 3 C0.1 3, 0 2.9, 0 2.7 M0.3 3 C0.1 3, 0 2.9, 0 2.7 M0 2.7 C0 1.94, 0 1.17, 0 0.3 M0 2.7 C0 2.08, 0 1.47, 0 0.3 M0 0.3 C0 0.1, 0.1 0, 0.3 0 M0 0.3 C0 0.1, 0.1 0, 0.3 0" stroke="transparent" stroke-width="1" fill="none"></path></g><g stroke-linecap="round" transform="translate(652 719) rotate(0 10 3.5)"><path d="M0 0 L20 0 L20 7 L0 7" stroke="none" stroke-width="0" fill="#aecbfa"></path><path d="M0 0 C6.7 0, 13.4 0, 20 0 M0 0 C6.15 0, 12.3 0, 20 0 M20 0 C20 2.48, 20 4.95, 20 7 M20 0 C20 1.65, 20 3.31, 20 7 M20 7 C14.28 7, 8.56 7, 0 7 M20 7 C15.03 7, 10.05 7, 0 7 M0 7 C0 4.79, 0 2.59, 0 0 M0 7 C0 4.91, 0 2.82, 0 0" stroke="transparent" stroke-width="1" fill="none"></path></g><g stroke-linecap="round" transform="translate(670 719) rotate(0 1 3.5)"><path d="M0 0 L2 0 L2 7 L0 7" stroke="none" stroke-width="0" fill="#669df6"></path><path d="M0 0 C0.4 0, 0.8 0, 2 0 M0 0 C0.55 0, 1.1 0, 2 0 M2 0 C2 2.14, 2 4.28, 2 7 M2 0 C2 2.68, 2 5.37, 2 7 M2 7 C1.57 7, 1.14 7, 0 7 M2 7 C1.38 7, 0.76 7, 0 7 M0 7 C0 5.12, 0 3.24, 0 0 M0 7 C0 4.27, 0 1.54, 0 0" stroke="transparent" stroke-width="1" fill="none"></path></g><g stroke-linecap="round"><g transform="translate(672 719) rotate(0 -1 3.5)" fill-rule="evenodd"><path d="M0 0 L-2 0 L-2 7 L0 0 L0 0" stroke="none" stroke-width="0" fill="#4285f4" fill-rule="evenodd"></path><path d="M0 0 C-0.42 0, -0.84 0, -2 0 M0 0 C-0.41 0, -0.82 0, -2 0 M-2 0 C-2 2.46, -2 4.93, -2 7 M-2 0 C-2 2.69, -2 5.39, -2 7 M-2 7 C-1.44 5.03, -0.88 3.07, 0 0 M-2 7 C-1.29 4.5, -0.57 2.01, 0 0 M0 0 C0 0, 0 0, 0 0 M0 0 C0 0, 0 0, 0 0 M0 0 C0 0, 0 0, 0 0 M0 0 C0 0, 0 0, 0 0" stroke="#00000000" stroke-width="1" fill="none"></path></g></g><g stroke-linecap="round" transform="translate(652 719) rotate(0 1 3.5)"><path d="M0 0 L2 0 L2 7 L0 7" stroke="none" stroke-width="0" fill="#669df6"></path><path d="M0 0 C0.63 0, 1.25 0, 2 0 M0 0 C0.52 0, 1.05 0, 2 0 M2 0 C2 2.46, 2 4.92, 2 7 M2 0 C2 1.69, 2 3.38, 2 7 M2 7 C1.42 7, 0.85 7, 0 7 M2 7 C1.39 7, 0.79 7, 0 7 M0 7 C0 5.01, 0 3.02, 0 0 M0 7 C0 5.26, 0 3.51, 0 0" stroke="transparent" stroke-width="1" fill="none"></path></g><g stroke-linecap="round" transform="translate(656 722) rotate(0 3 0.5)"><path d="M0 0 L6 0 L6 1 L0 1" stroke="none" stroke-width="0" fill="#fff"></path><path d="M0 0 C1.21 0, 2.41 0, 6 0 M0 0 C2.32 0, 4.63 0, 6 0 M6 0 C6 0.21, 6 0.41, 6 1 M6 0 C6 0.33, 6 0.66, 6 1 M6 1 C3.64 1, 1.29 1, 0 1 M6 1 C4.12 1, 2.25 1, 0 1 M0 1 C0 0.77, 0 0.55, 0 0 M0 1 C0 0.77, 0 0.55, 0 0" stroke="transparent" stroke-width="1" fill="none"></path></g><g stroke-linecap="round" transform="translate(665 721) rotate(0 1.5 1.5)"><path d="M0.3 0 L3 0.3 L2.7 3 L0 2.7 L0.3 0" stroke="none" stroke-width="0" fill="#fff"></path><path d="M0.3 0 M0.3 0 C1.23 0, 2.15 0, 2.7 0 M0.3 0 C1.15 0, 2 0, 2.7 0 M2.7 0 C2.9 0, 3 0.1, 3 0.3 M2.7 0 C2.9 0, 3 0.1, 3 0.3 M3 0.3 C3 1.09, 3 1.89, 3 2.7 M3 0.3 C3 0.99, 3 1.67, 3 2.7 M3 2.7 C3 2.9, 2.9 3, 2.7 3 M3 2.7 C3 2.9, 2.9 3, 2.7 3 M2.7 3 C1.95 3, 1.2 3, 0.3 3 M2.7 3 C1.94 3, 1.19 3, 0.3 3 M0.3 3 C0.1 3, 0 2.9, 0 2.7 M0.3 3 C0.1 3, 0 2.9, 0 2.7 M0 2.7 C0 2.16, 0 1.61, 0 0.3 M0 2.7 C0 1.96, 0 1.22, 0 0.3 M0 0.3 C0 0.1, 0.1 0, 0.3 0 M0 0.3 C0 0.1, 0.1 0, 0.3 0" stroke="transparent" stroke-width="1" fill="none"></path></g><g stroke-linecap="round" transform="translate(450 450) rotate(0 120 30)"><path d="M6 0 L236.63 0.38 L238.5 1.5 L240 6 L239.63 56.63 L238.5 58.5 L234 60 L3.38 59.63 L1.5 58.5 L0 54 L0 6 L1.5 1.5 L6 0" stroke="none" stroke-width="0" fill="#FFF"></path><path d="M6 0 M6 0 C67.79 0, 129.57 0, 234 0 M6 0 C78.44 0, 150.88 0, 234 0 M234 0 C238 0, 240 2, 240 6 M234 0 C238 0, 240 2, 240 6 M240 6 C240 15.9, 240 25.81, 240 54 M240 6 C240 23.3, 240 40.61, 240 54 M240 54 C240 58, 238 60, 234 60 M240 54 C240 58, 238 60, 234 60 M234 60 C171.48 60, 108.96 60, 6 60 M234 60 C144.1 60, 54.2 60, 6 60 M6 60 C2 60, 0 58, 0 54 M6 60 C2 60, 0 58, 0 54 M0 54 C0 35.91, 0 17.81, 0 6 M0 54 C0 41.52, 0 29.04, 0 6 M0 6 C0 2, 2 0, 6 0 M0 6 C0 2, 2 0, 6 0" stroke="#202124" stroke-width="1" fill="none"></path></g><g transform="translate(466 466) rotate(0 80 9)"><text x="0" y="16" font-family="GoogleSans_Medium, Segoe UI Emoji" font-size="16px" fill="#1A73E8" text-anchor="start" style="white-space: pre;" direction="ltr">Cloud CDN</text></g><g stroke-linecap="round"><g transform="translate(662.0384616851807 467) rotate(0 1.7269229888916016 3.1076924800872803)" fill-rule="evenodd"><path d="M0 0 L0 2.66 L3.45 6.22 L3.45 3.54 L0 0" stroke="none" stroke-width="0" fill="#669df6" fill-rule="evenodd"></path><path d="M0 0 C0 0.94, 0 1.87, 0 2.66 M0 0 C0 1.01, 0 2.02, 0 2.66 M0 2.66 C1.07 3.76, 2.13 4.85, 3.45 6.22 M0 2.66 C1.19 3.88, 2.37 5.1, 3.45 6.22 M3.45 6.22 C3.45 5.43, 3.45 4.64, 3.45 3.54 M3.45 6.22 C3.45 5.34, 3.45 4.47, 3.45 3.54 M3.45 3.54 C2.53 2.6, 1.62 1.66, 0 0 M3.45 3.54 C2.09 2.14, 0.72 0.73, 0 0 M0 0 C0 0, 0 0, 0 0 M0 0 C0 0, 0 0, 0 0" stroke="transparent" stroke-width="1" fill="none"></path></g></g><g stroke-linecap="round"><g transform="translate(670.3153858184814 478.03846168518066) rotate(0 -0.34038543701171875 1.7269229888916016)" fill-rule="evenodd"><path d="M0 0 L-3.44 3.45 L-0.68 3.45 L2.76 0 L0 0" stroke="none" stroke-width="0" fill="#669df6" fill-rule="evenodd"></path><path d="M0 0 C-1.12 1.12, -2.24 2.24, -3.44 3.45 M0 0 C-0.73 0.73, -1.46 1.46, -3.44 3.45 M-3.44 3.45 C-2.49 3.45, -1.55 3.45, -0.68 3.45 M-3.44 3.45 C-2.38 3.45, -1.32 3.45, -0.68 3.45 M-0.68 3.45 C0.44 2.33, 1.57 1.2, 2.76 0 M-0.68 3.45 C0.02 2.76, 0.71 2.06, 2.76 0 M2.76 0 C2.01 0, 1.26 0, 0 0 M2.76 0 C2.11 0, 1.46 0, 0 0 M0 0 C0 0, 0 0, 0 0 M0 0 C0 0, 0 0, 0 0" stroke="transparent" stroke-width="1" fill="none"></path></g></g><g stroke-linecap="round"><g transform="translate(653.7615387439728 478.03846168518066) rotate(0 0.34615373611450195 1.7269229888916016)" fill-rule="evenodd"><path d="M0 0 L3.45 3.45 L0.69 3.45 L-2.76 0 L0 0" stroke="none" stroke-width="0" fill="#669df6" fill-rule="evenodd"></path><path d="M0 0 C1.08 1.08, 2.16 2.16, 3.45 3.45 M0 0 C1.09 1.09, 2.17 2.17, 3.45 3.45 M3.45 3.45 C2.89 3.45, 2.32 3.45, 0.69 3.45 M3.45 3.45 C2.41 3.45, 1.37 3.45, 0.69 3.45 M0.69 3.45 C-0.03 2.73, -0.76 2, -2.76 0 M0.69 3.45 C-0.05 2.71, -0.8 1.96, -2.76 0 M-2.76 0 C-1.79 0, -0.82 0, 0 0 M-2.76 0 C-1.75 0, -0.74 0, 0 0 M0 0 C0 0, 0 0, 0 0 M0 0 C0 0, 0 0, 0 0" stroke="transparent" stroke-width="1" fill="none"></path></g></g><g stroke-linecap="round"><g transform="translate(662.0384616851807 489.0769233703613) rotate(0 1.7269229888916016 -3.1019229888916016)" fill-rule="evenodd"><path d="M0 0 L0 -2.66 L3.45 -6.2 L3.45 -3.54 L0 0" stroke="none" stroke-width="0" fill="#669df6" fill-rule="evenodd"></path><path d="M0 0 C0 -0.95, 0 -1.9, 0 -2.66 M0 0 C0 -1, 0 -1.99, 0 -2.66 M0 -2.66 C1.16 -3.86, 2.33 -5.05, 3.45 -6.2 M0 -2.66 C1.2 -3.9, 2.41 -5.13, 3.45 -6.2 M3.45 -6.2 C3.45 -5.49, 3.45 -4.78, 3.45 -3.54 M3.45 -6.2 C3.45 -5.65, 3.45 -5.1, 3.45 -3.54 M3.45 -3.54 C2.56 -2.63, 1.67 -1.71, 0 0 M3.45 -3.54 C2.6 -2.67, 1.75 -1.79, 0 0 M0 0 C0 0, 0 0, 0 0 M0 0 C0 0, 0 0, 0 0" stroke="transparent" stroke-width="1" fill="none"></path></g></g><g stroke-linecap="round"><g transform="translate(662.0384616851807 467) rotate(0 -1.721153736114502 3.1076924800872803)" fill-rule="evenodd"><path d="M0 0 L-3.44 3.54 L-3.44 6.22 L0 2.66 L0 0" stroke="none" stroke-width="0" fill="#aecbfa" fill-rule="evenodd"></path><path d="M0 0 C-0.97 0.99, -1.93 1.99, -3.44 3.54 M0 0 C-1.17 1.21, -2.34 2.41, -3.44 3.54 M-3.44 3.54 C-3.44 4.44, -3.44 5.34, -3.44 6.22 M-3.44 3.54 C-3.44 4.35, -3.44 5.16, -3.44 6.22 M-3.44 6.22 C-2.47 5.22, -1.5 4.22, 0 2.66 M-3.44 6.22 C-2.38 5.11, -1.31 4.01, 0 2.66 M0 2.66 C0 1.67, 0 0.67, 0 0 M0 2.66 C0 1.99, 0 1.32, 0 0 M0 0 C0 0, 0 0, 0 0 M0 0 C0 0, 0 0, 0 0" stroke="transparent" stroke-width="1" fill="none"></path></g></g><g stroke-linecap="round"><g transform="translate(669.6346168518066 474.59615421295166) rotate(0 0.34038352966308594 1.721153736114502)" fill-rule="evenodd"><path d="M0 0 L-2.76 0 L0.68 3.44 L3.44 3.44 L0 0" stroke="none" stroke-width="0" fill="#aecbfa" fill-rule="evenodd"></path><path d="M0 0 C-0.57 0, -1.14 0, -2.76 0 M0 0 C-0.78 0, -1.55 0, -2.76 0 M-2.76 0 C-1.57 1.19, -0.38 2.38, 0.68 3.44 M-2.76 0 C-1.63 1.13, -0.5 2.26, 0.68 3.44 M0.68 3.44 C1.43 3.44, 2.18 3.44, 3.44 3.44 M0.68 3.44 C1.7 3.44, 2.71 3.44, 3.44 3.44 M3.44 3.44 C2.08 2.08, 0.73 0.73, 0 0 M3.44 3.44 C2.14 2.14, 0.84 0.84, 0 0 M0 0 C0 0, 0 0, 0 0 M0 0 C0 0, 0 0, 0 0" stroke="transparent" stroke-width="1" fill="none"></path></g></g><g stroke-linecap="round"><g transform="translate(654.4538464546204 474.59615421295166) rotate(0 -0.34615397453308105 1.721153736114502)" fill-rule="evenodd"><path d="M0 0 L2.76 0 L-0.69 3.44 L-3.45 3.44 L0 0" stroke="none" stroke-width="0" fill="#aecbfa" fill-rule="evenodd"></path><path d="M0 0 C0.88 0, 1.77 0, 2.76 0 M0 0 C1.09 0, 2.18 0, 2.76 0 M2.76 0 C1.66 1.09, 0.57 2.19, -0.69 3.44 M2.76 0 C1.63 1.12, 0.51 2.25, -0.69 3.44 M-0.69 3.44 C-1.69 3.44, -2.68 3.44, -3.45 3.44 M-0.69 3.44 C-1.67 3.44, -2.65 3.44, -3.45 3.44 M-3.45 3.44 C-2.09 2.08, -0.73 0.73, 0 0 M-3.45 3.44 C-2.36 2.35, -1.26 1.26, 0 0 M0 0 C0 0, 0 0, 0 0 M0 0 C0 0, 0 0, 0 0" stroke="transparent" stroke-width="1" fill="none"></path></g></g><g stroke-linecap="round"><g transform="translate(662.0384616851807 489.0769233703613) rotate(0 -1.721153736114502 -3.1019229888916016)" fill-rule="evenodd"><path d="M0 0 L-3.44 -3.54 L-3.44 -6.2 L0 -2.66 L0 0" stroke="none" stroke-width="0" fill="#aecbfa" fill-rule="evenodd"></path><path d="M0 0 C-1.14 -1.17, -2.27 -2.34, -3.44 -3.54 M0 0 C-0.89 -0.92, -1.79 -1.84, -3.44 -3.54 M-3.44 -3.54 C-3.44 -4.37, -3.44 -5.21, -3.44 -6.2 M-3.44 -3.54 C-3.44 -4.38, -3.44 -5.22, -3.44 -6.2 M-3.44 -6.2 C-2.27 -5, -1.1 -3.79, 0 -2.66 M-3.44 -6.2 C-2.72 -5.46, -1.99 -4.71, 0 -2.66 M0 -2.66 C0 -2.08, 0 -1.49, 0 0 M0 -2.66 C0 -1.94, 0 -1.22, 0 0 M0 0 C0 0, 0 0, 0 0 M0 0 C0 0, 0 0, 0 0" stroke="transparent" stroke-width="1" fill="none"></path></g></g><g stroke-linecap="round"><g transform="translate(665.4923076629639 481.49230766296387) rotate(0 -3.4480767250061035 -3.4480767250061035)" fill-rule="evenodd"><path d="M0 0 L-6.9 0 L-6.9 -6.9 L0 -6.9 L0 0" stroke="none" stroke-width="0" fill="#aecbfa" fill-rule="evenodd"></path><path d="M0 0 C-2.4 0, -4.8 0, -6.9 0 M0 0 C-1.6 0, -3.19 0, -6.9 0 M-6.9 0 C-6.9 -1.77, -6.9 -3.54, -6.9 -6.9 M-6.9 0 C-6.9 -1.99, -6.9 -3.97, -6.9 -6.9 M-6.9 -6.9 C-4.69 -6.9, -2.48 -6.9, 0 -6.9 M-6.9 -6.9 C-5.2 -6.9, -3.5 -6.9, 0 -6.9 M0 -6.9 C0 -4.61, 0 -2.32, 0 0 M0 -6.9 C0 -4.27, 0 -1.65, 0 0 M0 0 C0 0, 0 0, 0 0 M0 0 C0 0, 0 0, 0 0" stroke="transparent" stroke-width="1" fill="none"></path></g></g><g stroke-linecap="round"><g transform="translate(665.4923076629639 474.59615421295166) rotate(0 -3.4480767250061035 3.4480767250061035)" fill-rule="evenodd"><path d="M0 0 L0 6.9 L-6.9 6.9 L0 0" stroke="none" stroke-width="0" fill="#669df6" fill-rule="evenodd"></path><path d="M0 0 C0 1.83, 0 3.66, 0 6.9 M0 0 C0 1.45, 0 2.91, 0 6.9 M0 6.9 C-2.64 6.9, -5.28 6.9, -6.9 6.9 M0 6.9 C-2.08 6.9, -4.16 6.9, -6.9 6.9 M-6.9 6.9 C-4.84 4.84, -2.78 2.78, 0 0 M-6.9 6.9 C-5.48 5.48, -4.06 4.06, 0 0 M0 0 C0 0, 0 0, 0 0 M0 0 C0 0, 0 0, 0 0" stroke="transparent" stroke-width="1" fill="none"></path></g></g><g stroke-linecap="round"><g transform="translate(665.4923076629639 474.59615421295166) rotate(0 -1.7269229888916016 3.4480767250061035)" fill-rule="evenodd"><path d="M0 0 L0 6.9 L-3.45 3.44 L0 0" stroke="none" stroke-width="0" fill="#4285f4" fill-rule="evenodd"></path><path d="M0 0 C0 1.62, 0 3.23, 0 6.9 M0 0 C0 1.87, 0 3.74, 0 6.9 M0 6.9 C-1.2 5.69, -2.41 4.49, -3.45 3.44 M0 6.9 C-0.71 6.18, -1.43 5.47, -3.45 3.44 M-3.45 3.44 C-2.21 2.21, -0.98 0.97, 0 0 M-3.45 3.44 C-2.51 2.5, -1.56 1.55, 0 0 M0 0 C0 0, 0 0, 0 0 M0 0 C0 0, 0 0, 0 0" stroke="transparent" stroke-width="1" fill="none"></path></g></g><g stroke-linecap="round"><g transform="translate(310 390) rotate(0 0 20)"><path d="M0 0 C0 8.16, 0 16.32, 0 40 M0 0 C0 11.13, 0 22.26, 0 40" stroke="#202124" stroke-width="1" fill="none"></path></g><g transform="translate(310 390) rotate(0 0 20)"><path d="M0 40 L-6.34 26.41 L6.34 26.41 L0 40" stroke="none" stroke-width="0" fill="#202124" fill-rule="evenodd"></path><path d="M0 40 C-1.29 37.23, -2.59 34.45, -6.34 26.41 M0 40 C-1.76 36.22, -3.53 32.44, -6.34 26.41 M-6.34 26.41 C-3.06 26.41, 0.21 26.41, 6.34 26.41 M-6.34 26.41 C-1.93 26.41, 2.48 26.41, 6.34 26.41 M6.34 26.41 C4.3 30.79, 2.25 35.17, 0 40 M6.34 26.41 C4.59 30.16, 2.84 33.92, 0 40 M0 40 C0 40, 0 40, 0 40 M0 40 C0 40, 0 40, 0 40" stroke="#202124" stroke-width="1" fill="none"></path></g></g><g stroke-linecap="round"><g transform="translate(490 390) rotate(0 0 30)"><path d="M0 0 C0 18.52, 0 37.05, 0 60 M0 0 C0 19.05, 0 38.09, 0 60" stroke="#202124" stroke-width="1" fill="none"></path></g><g transform="translate(490 390) rotate(0 0 30)"><path d="M0 60 L-6.34 46.41 L6.34 46.41 L0 60" stroke="none" stroke-width="0" fill="#202124" fill-rule="evenodd"></path><path d="M0 60 C-1.96 55.8, -3.91 51.61, -6.34 46.41 M0 60 C-2.01 55.68, -4.02 51.37, -6.34 46.41 M-6.34 46.41 C-1.44 46.41, 3.46 46.41, 6.34 46.41 M-6.34 46.41 C-1.96 46.41, 2.41 46.41, 6.34 46.41 M6.34 46.41 C4.57 50.21, 2.79 54.01, 0 60 M6.34 46.41 C4 51.43, 1.65 56.45, 0 60 M0 60 C0 60, 0 60, 0 60 M0 60 C0 60, 0 60, 0 60" stroke="#202124" stroke-width="1" fill="none"></path></g></g><g stroke-linecap="round"><g transform="translate(310 510) rotate(0 0 20)"><path d="M0 0 C0 13.06, 0 26.12, 0 40 M0 0 C0 10.5, 0 21, 0 40" stroke="#202124" stroke-width="1" fill="none"></path></g><g transform="translate(310 510) rotate(0 0 20)"><path d="M0 40 L-6.34 26.41 L6.34 26.41 L0 40" stroke="none" stroke-width="0" fill="#202124" fill-rule="evenodd"></path><path d="M0 40 C-2.07 35.56, -4.14 31.12, -6.34 26.41 M0 40 C-1.66 36.43, -3.33 32.86, -6.34 26.41 M-6.34 26.41 C-1.67 26.41, 3.01 26.41, 6.34 26.41 M-6.34 26.41 C-3.09 26.41, 0.15 26.41, 6.34 26.41 M6.34 26.41 C4.87 29.56, 3.4 32.71, 0 40 M6.34 26.41 C4.24 30.9, 2.14 35.4, 0 40 M0 40 C0 40, 0 40, 0 40 M0 40 C0 40, 0 40, 0 40" stroke="#202124" stroke-width="1" fill="none"></path></g></g><g stroke-linecap="round"><g transform="translate(310 630) rotate(0 0 29.5)"><path d="M0 0 C0 23.55, 0 47.1, 0 59 M0 0 C0 16.54, 0 33.08, 0 59" stroke="#202124" stroke-width="1" fill="none"></path></g><g transform="translate(310 630) rotate(0 0 29.5)"><path d="M0 59 L-6.34 45.41 L6.34 45.41 L0 59" stroke="none" stroke-width="0" fill="#202124" fill-rule="evenodd"></path><path d="M0 59 C-2.53 53.57, -5.06 48.15, -6.34 45.41 M0 59 C-1.78 55.19, -3.55 51.38, -6.34 45.41 M-6.34 45.41 C-1.61 45.41, 3.12 45.41, 6.34 45.41 M-6.34 45.41 C-3.37 45.41, -0.41 45.41, 6.34 45.41 M6.34 45.41 C4.41 49.54, 2.48 53.67, 0 59 M6.34 45.41 C4.97 48.35, 3.59 51.3, 0 59 M0 59 C0 59, 0 59, 0 59 M0 59 C0 59, 0 59, 0 59" stroke="#202124" stroke-width="1" fill="none"></path></g></g><g stroke-linecap="round"><g transform="translate(310 630) rotate(0 130 29.5)"><path d="M0 0 C0 4.53, 0 9.07, 0 20 M0 0 C0 4.43, 0 8.86, 0 20 M0 20 C101.28 20, 202.55 20, 260 20 M0 20 C83.11 20, 166.21 20, 260 20 M260 20 C260 31.06, 260 42.13, 260 59 M260 20 C260 32.15, 260 44.3, 260 59" stroke="#202124" stroke-width="1" fill="none"></path></g><g transform="translate(310 630) rotate(0 130 29.5)"><path d="M260 59 L253.66 45.41 L266.34 45.41 L260 59" stroke="none" stroke-width="0" fill="#202124" fill-rule="evenodd"></path><path d="M260 59 C258.56 55.92, 257.13 52.84, 253.66 45.41 M260 59 C258.6 55.99, 257.19 52.98, 253.66 45.41 M253.66 45.41 C258.6 45.41, 263.54 45.41, 266.34 45.41 M253.66 45.41 C257.71 45.41, 261.77 45.41, 266.34 45.41 M266.34 45.41 C264.54 49.26, 262.74 53.12, 260 59 M266.34 45.41 C264.36 49.64, 262.39 53.87, 260 59 M260 59 C260 59, 260 59, 260 59 M260 59 C260 59, 260 59, 260 59" stroke="#202124" stroke-width="1" fill="none"></path></g></g><g stroke-linecap="round"><g transform="translate(490 390) rotate(0 120 170)"><path d="M0 0 C0 6.4, 0 12.79, 0 20 M0 20 C53.2 20, 106.39 20, 240 20 M240 20 C240 119.16, 240 218.32, 240 340 M240 340 C228.6 340, 217.2 340, 200 340" stroke="#202124" stroke-width="1.5" fill="none" stroke-dasharray="1.5 7"></path></g><g transform="translate(490 390) rotate(0 120 170)"><path d="M200 340 L213.59 333.66 L213.59 346.34 L200 340" stroke="none" stroke-width="0" fill="#202124" fill-rule="evenodd"></path><path d="M200 340 C204.35 337.97, 208.7 335.95, 213.59 333.66 M213.59 333.66 C213.59 336.47, 213.59 339.28, 213.59 346.34 M213.59 346.34 C209.38 344.37, 205.17 342.41, 200 340 M200 340 C200 340, 200 340, 200 340" stroke="#202124" stroke-width="1.5" fill="none"></path></g></g><g stroke-linecap="round" transform="translate(350 90) rotate(0 44 41)"><path d="M8.2 0 L79.8 0 L83.39 0.51 L85.95 2.05 L87.49 4.61 L88 8.2 L88 73.8 L87.49 77.39 L85.95 79.95 L83.39 81.49 L79.8 82 L8.2 82 L4.61 81.49 L2.05 79.95 L0.51 77.39 L0 73.8 L0 8.2 L0.51 4.61 L2.05 2.05 L4.61 0.51 L8.2 0" stroke="none" stroke-width="0" fill="#FFF"></path><path d="M8.2 0 M8.2 0 C35.49 0, 62.79 0, 79.8 0 M8.2 0 C27.12 0, 46.04 0, 79.8 0 M79.8 0 C85.27 0, 88 2.73, 88 8.2 M79.8 0 C85.27 0, 88 2.73, 88 8.2 M88 8.2 C88 26.75, 88 45.3, 88 73.8 M88 8.2 C88 24.69, 88 41.18, 88 73.8 M88 73.8 C88 79.27, 85.27 82, 79.8 82 M88 73.8 C88 79.27, 85.27 82, 79.8 82 M79.8 82 C51.91 82, 24.02 82, 8.2 82 M79.8 82 C56.73 82, 33.65 82, 8.2 82 M8.2 82 C2.73 82, 0 79.27, 0 73.8 M8.2 82 C2.73 82, 0 79.27, 0 73.8 M0 73.8 C0 55.11, 0 36.41, 0 8.2 M0 73.8 C0 56.4, 0 38.99, 0 8.2 M0 8.2 C0 2.73, 2.73 0, 8.2 0 M0 8.2 C0 2.73, 2.73 0, 8.2 0" stroke="#202124" stroke-width="1" fill="none"></path></g><g transform="translate(366 138) rotate(0 28 9)"><text x="28" y="16" font-family="Helvetica, Segoe UI Emoji" font-size="16px" fill="#202124" text-anchor="middle" style="white-space: pre;" direction="ltr">Computer</text></g><g stroke-linecap="round"><g transform="translate(382 106) rotate(0 12 12)" fill-rule="evenodd"><path d="M0 0 L24 0 L24 24 L0 24 L0 0" stroke="none" stroke-width="0" fill="#00000000" fill-rule="evenodd"></path><path d="M0 0 C8.65 0, 17.3 0, 24 0 M0 0 C6.62 0, 13.24 0, 24 0 M24 0 C24 8.85, 24 17.71, 24 24 M24 0 C24 9.49, 24 18.98, 24 24 M24 24 C15.63 24, 7.27 24, 0 24 M24 24 C15.25 24, 6.51 24, 0 24 M0 24 C0 18.27, 0 12.55, 0 0 M0 24 C0 16.19, 0 8.39, 0 0 M0 0 C0 0, 0 0, 0 0 M0 0 C0 0, 0 0, 0 0" stroke="#00000000" stroke-width="1" fill="none"></path></g></g><g stroke-linecap="round"><g transform="translate(402 124) rotate(0 -8 -6)" fill-rule="evenodd"><path d="M0 0 L0 0 L0.77 -0.16 L1.41 -0.59 L1.83 -1.22 L1.99 -2 L2 -12 L2 -12 L1.84 -12.78 L1.41 -13.41 L0.78 -13.84 L0 -14 L-16 -14 L-16 -14 L-16.78 -13.84 L-17.41 -13.41 L-17.84 -12.78 L-18 -12 L-18 -2 L-18 -2 L-17.84 -1.22 L-17.41 -0.59 L-16.78 -0.16 L-16 0 L-20 0 L-20 2 L4 2 L4 0 L0 0 L0 0" stroke="none" stroke-width="0" fill="#000" fill-rule="evenodd"></path><path d="M0 0 C0 0, 0 0, 0 0 M0 0 C0 0, 0 0, 0 0 M0 0 C0.26 -0.05, 0.53 -0.11, 0.77 -0.16 M0 0 C0.18 -0.04, 0.37 -0.08, 0.77 -0.16 M0.77 -0.16 C0.96 -0.29, 1.15 -0.41, 1.41 -0.59 M0.77 -0.16 C0.98 -0.3, 1.19 -0.44, 1.41 -0.59 M1.41 -0.59 C1.56 -0.82, 1.72 -1.06, 1.83 -1.22 M1.41 -0.59 C1.57 -0.83, 1.74 -1.08, 1.83 -1.22 M1.83 -1.22 C1.89 -1.52, 1.95 -1.82, 1.99 -2 M1.83 -1.22 C1.87 -1.42, 1.91 -1.61, 1.99 -2 M1.99 -2 C1.99 -4.56, 2 -7.13, 2 -12 M1.99 -2 C1.99 -4.51, 2 -7.01, 2 -12 M2 -12 C2 -12, 2 -12, 2 -12 M2 -12 C2 -12, 2 -12, 2 -12 M2 -12 C1.95 -12.24, 1.9 -12.48, 1.84 -12.78 M2 -12 C1.95 -12.22, 1.91 -12.44, 1.84 -12.78 M1.84 -12.78 C1.76 -12.9, 1.67 -13.03, 1.41 -13.41 M1.84 -12.78 C1.7 -12.99, 1.56 -13.2, 1.41 -13.41 M1.41 -13.41 C1.28 -13.5, 1.14 -13.6, 0.78 -13.84 M1.41 -13.41 C1.28 -13.5, 1.14 -13.59, 0.78 -13.84 M0.78 -13.84 C0.58 -13.88, 0.39 -13.92, 0 -14 M0.78 -13.84 C0.61 -13.88, 0.45 -13.91, 0 -14 M0 -14 C-6.17 -14, -12.35 -14, -16 -14 M0 -14 C-5.16 -14, -10.32 -14, -16 -14 M-16 -14 C-16 -14, -16 -14, -16 -14 M-16 -14 C-16 -14, -16 -14, -16 -14 M-16 -14 C-16.17 -13.97, -16.34 -13.93, -16.78 -13.84 M-16 -14 C-16.3 -13.94, -16.6 -13.88, -16.78 -13.84 M-16.78 -13.84 C-16.93 -13.74, -17.08 -13.64, -17.41 -13.41 M-16.78 -13.84 C-16.97 -13.71, -17.17 -13.57, -17.41 -13.41 M-17.41 -13.41 C-17.51 -13.27, -17.6 -13.13, -17.84 -12.78 M-17.41 -13.41 C-17.56 -13.19, -17.72 -12.96, -17.84 -12.78 M-17.84 -12.78 C-17.89 -12.54, -17.94 -12.3, -18 -12 M-17.84 -12.78 C-17.89 -12.55, -17.93 -12.32, -18 -12 M-18 -12 C-18 -9.01, -18 -6.02, -18 -2 M-18 -12 C-18 -9.72, -18 -7.44, -18 -2 M-18 -2 C-18 -2, -18 -2, -18 -2 M-18 -2 C-18 -2, -18 -2, -18 -2 M-18 -2 C-17.96 -1.8, -17.92 -1.6, -17.84 -1.22 M-18 -2 C-17.97 -1.84, -17.93 -1.68, -17.84 -1.22 M-17.84 -1.22 C-17.73 -1.05, -17.61 -0.88, -17.41 -0.59 M-17.84 -1.22 C-17.74 -1.07, -17.63 -0.91, -17.41 -0.59 M-17.41 -0.59 C-17.22 -0.46, -17.03 -0.33, -16.78 -0.16 M-17.41 -0.59 C-17.19 -0.44, -16.97 -0.29, -16.78 -0.16 M-16.78 -0.16 C-16.54 -0.11, -16.31 -0.06, -16 0 M-16.78 -0.16 C-16.61 -0.12, -16.43 -0.09, -16 0 M-16 0 C-17.41 0, -18.81 0, -20 0 M-16 0 C-17.17 0, -18.33 0, -20 0 M-20 0 C-20 0.77, -20 1.53, -20 2 M-20 0 C-20 0.79, -20 1.58, -20 2 M-20 2 C-12.5 2, -5 2, 4 2 M-20 2 C-11.73 2, -3.45 2, 4 2 M4 2 C4 1.37, 4 0.73, 4 0 M4 2 C4 1.54, 4 1.08, 4 0 M4 0 C2.4 0, 0.81 0, 0 0 M4 0 C2.44 0, 0.88 0, 0 0 M0 0 C0 0, 0 0, 0 0 M0 0 C0 0, 0 0, 0 0 M0 0 C0 0, 0 0, 0 0 M0 0 C0 0, 0 0, 0 0" stroke="#00000000" stroke-width="1" fill="none"></path></g></g><g stroke-linecap="round"><g transform="translate(386 112) rotate(0 8 5)" fill-rule="evenodd"><path d="M0 0 L16 0 L16 10 L0 10 L0 0" stroke="none" stroke-width="0" fill="#DEDEDE" fill-rule="evenodd"></path><path d="M0 0 C4.81 0, 9.61 0, 16 0 M0 0 C6.15 0, 12.3 0, 16 0 M16 0 C16 2.22, 16 4.45, 16 10 M16 0 C16 2.61, 16 5.23, 16 10 M16 10 C12.71 10, 9.42 10, 0 10 M16 10 C11.02 10, 6.04 10, 0 10 M0 10 C0 7.62, 0 5.24, 0 0 M0 10 C0 6.86, 0 3.71, 0 0 M0 0 C0 0, 0 0, 0 0 M0 0 C0 0, 0 0, 0 0" stroke="#00000000" stroke-width="1" fill="none"></path></g></g><g stroke-linecap="round"><g transform="translate(390 170) rotate(0 0 80)"><path d="M0 0 C0 58.81, 0 117.63, 0 160 M0 0 C0 61.49, 0 122.98, 0 160" stroke="#202124" stroke-width="1" fill="none"></path></g><g transform="translate(390 170) rotate(0 0 80)"><path d="M0 160 L-6.34 146.41 L6.34 146.41 L0 160" stroke="none" stroke-width="0" fill="#202124" fill-rule="evenodd"></path><path d="M0 160 C-2.33 155, -4.66 150.01, -6.34 146.41 M0 160 C-2.44 154.78, -4.87 149.55, -6.34 146.41 M-6.34 146.41 C-1.47 146.41, 3.41 146.41, 6.34 146.41 M-6.34 146.41 C-3.18 146.41, -0.02 146.41, 6.34 146.41 M6.34 146.41 C4.71 149.89, 3.09 153.38, 0 160 M6.34 146.41 C4.75 149.81, 3.16 153.22, 0 160 M0 160 C0 160, 0 160, 0 160 M0 160 C0 160, 0 160, 0 160" stroke="#202124" stroke-width="1" fill="none"></path></g></g></svg>